<svg width="35" height="30" viewBox="0 0 35 30" fill="none" xmlns="http://www.w3.org/2000/svg">
<path d="M15.6743 26.2607C17.9549 34.9622 20.9262 40.6437 22.919 42.6099C27.6926 47.3216 37.9751 48.3666 43.7584 50.7667C45.6404 51.5506 50.8436 39.6119 48.9173 38.5669C47.4959 37.7919 30.9873 35.7018 29.5835 35.2722C28.8617 35.0508 23.3839 27.9169 20.2841 23.9048C15.289 17.475 14.4255 21.5092 15.6743 26.2607Z" fill="#F7A9A0"/>
<path d="M25.3979 30.2063L17.5023 37.6059C17.5023 37.6059 14.3139 26.1279 14.3361 22.4967C14.3361 18.4005 16.4439 19.3039 19.2072 22.0538C21.9704 24.8038 25.3979 30.2063 25.3979 30.2063Z" fill="#FFC727"/>
<path opacity="0.1" d="M25.3979 30.2063L17.5023 37.6059C17.5023 37.6059 14.3139 26.1279 14.3361 22.4967C14.3361 18.4005 16.4439 19.3039 19.2072 22.0538C21.9704 24.8038 25.3979 30.2063 25.3979 30.2063Z" fill="black"/>
<path d="M23.7813 29.037C22.6477 29.843 19.5877 32.7391 19.0741 33.2129C18.8039 33.4653 17.7766 34.5059 17.5064 34.7539C17.471 34.7849 17.5065 34.8336 17.5596 34.8026C18.0777 34.3332 18.6445 33.917 19.1626 33.4432C19.6807 32.9693 22.9045 30.1397 23.8167 29.0769C23.8389 29.0547 23.8079 29.0193 23.7813 29.037Z" fill="#263238"/>
<path d="M-27.5485 41.4451L4.77344 41.4451L4.77344 21.3496L-27.5485 21.3496V41.4451Z" fill="#37474F"/>
<path d="M5.49427 19.4941H-4.19922V21.354H5.49427V19.4941Z" fill="#263238"/>
<path d="M-7.91236 54.1897C-7.85037 54.2783 22.4434 56.6076 22.7623 56.3242C23.2051 55.9212 20.2072 24.8834 17.5015 20.3312C16.9214 19.3614 14.7028 18.8521 12.7588 18.8698C12.2526 18.8674 11.7473 18.9103 11.2488 18.9983H11.2001C10.7977 19.0667 10.4099 19.2029 10.0531 19.4012C4.23439 23.0324 -1.97405 37.3712 -3.53723 41.7109C-6.12777 48.867 -8.1382 53.8709 -7.91236 54.1897Z" fill="#FFC727"/>
<path d="M16.1045 24.2901C14.5989 24.2901 12.057 21.859 11.5522 19.5784C11.5168 19.419 12.1412 18.0595 12.8143 16.3679C13.2217 15.3362 13.6512 14.1848 13.9656 13.1043C14.0276 12.8785 20.2671 16.7222 20.2671 16.7222C19.4876 17.9624 18.863 19.2934 18.4072 20.6855C18.3661 20.8304 18.338 20.9785 18.323 21.1283C18.3248 21.1534 18.3248 21.1786 18.323 21.2036C18.2035 22.1026 17.7119 24.3123 16.1045 24.2901Z" fill="#F7A9A0"/>
<path d="M18.3262 21.1415C18.3279 21.1666 18.3279 21.1917 18.3262 21.2168C18.0873 21.182 17.8518 21.1272 17.6221 21.0529C13.6366 19.8042 14.0529 14.4991 14.2211 13.175C15.3769 13.6976 20.2835 16.7177 20.2835 16.7177C19.5047 17.9589 18.8787 19.2896 18.4192 20.681C18.3761 20.8318 18.345 20.9858 18.3262 21.1415Z" fill="#263238"/>
<path d="M14.5192 4.80574C13.4254 7.18815 13.7619 14.5479 15.3074 16.3724C17.5526 19.0293 21.7151 19.8309 24.102 17.0233C26.4135 14.3 25.8068 4.73046 24.0355 3.00786C21.4184 0.474886 16.1399 1.29412 14.5192 4.80574Z" fill="#F7A9A0"/>
<path d="M20.9312 10.0486C20.9312 10.0486 20.8958 10.0751 20.8958 10.0973C20.9312 10.5887 20.8958 11.1641 20.4531 11.3456C20.4531 11.3456 20.4531 11.3766 20.4531 11.3722C20.9976 11.2748 21.0419 10.5134 20.9312 10.0486Z" fill="#263238"/>
<path d="M20.4699 9.55269C19.6731 9.5217 19.6775 11.1242 20.4168 11.1508C21.1561 11.1773 21.1428 9.57482 20.4699 9.55269Z" fill="#263238"/>
<path d="M23.8024 10.1284C23.8024 10.1284 23.8422 10.1505 23.8378 10.1727C23.8378 10.6641 23.8909 11.2351 24.338 11.3989C24.338 11.3989 24.338 11.4299 24.338 11.4255C23.7891 11.3502 23.7006 10.5932 23.8024 10.1284Z" fill="#263238"/>
<path d="M24.2435 9.61016C25.0359 9.54818 25.1023 11.1463 24.363 11.1994C23.6237 11.2525 23.575 9.65442 24.2435 9.61016Z" fill="#263238"/>
<path d="M19.8389 8.82167C20.0479 8.75915 20.2533 8.68526 20.4542 8.60033C20.6833 8.55623 20.8907 8.43613 21.043 8.25947C21.0807 8.19457 21.0959 8.11904 21.0863 8.0446C21.0767 7.97016 21.0428 7.90097 20.9899 7.84777C20.8693 7.75952 20.7273 7.70518 20.5786 7.69039C20.4299 7.6756 20.28 7.7009 20.1444 7.76366C19.8492 7.84665 19.5963 8.03794 19.4361 8.29931C19.4038 8.3608 19.3899 8.43025 19.3959 8.49943C19.4019 8.56861 19.4277 8.6346 19.4701 8.68959C19.5125 8.74457 19.5698 8.78625 19.6351 8.80966C19.7005 8.83307 19.7712 8.83723 19.8389 8.82167Z" fill="#263238"/>
<path d="M24.861 8.79966C24.6454 8.75811 24.4325 8.70341 24.2236 8.63587C23.9918 8.61252 23.7748 8.51106 23.6082 8.34813C23.5633 8.28889 23.5391 8.2166 23.5391 8.14228C23.5391 8.06796 23.5633 7.99567 23.6082 7.93643C23.7206 7.83739 23.8576 7.77035 24.0048 7.74232C24.1519 7.71428 24.3039 7.72628 24.4449 7.77706C24.7457 7.8337 25.0142 8.00116 25.1975 8.24631C25.2346 8.30299 25.255 8.36905 25.2561 8.43683C25.2573 8.50461 25.2392 8.57133 25.204 8.62925C25.1688 8.68717 25.1179 8.73392 25.0572 8.76408C24.9965 8.79424 24.9285 8.80658 24.861 8.79966Z" fill="#263238"/>
<path d="M20.4797 14.6496C20.5992 14.7647 20.7188 14.924 20.9224 14.9417C21.1064 14.9362 21.2874 14.8925 21.4536 14.8134C21.4536 14.8134 21.4846 14.8134 21.4757 14.8399C21.405 14.9374 21.3093 15.0139 21.1986 15.0614C21.088 15.109 20.9665 15.1257 20.8471 15.11C20.7452 15.084 20.6534 15.0278 20.5839 14.9488C20.5144 14.8699 20.4704 14.7717 20.4576 14.6673C20.4266 14.6451 20.462 14.6319 20.4797 14.6496Z" fill="#263238"/>
<path d="M22.5084 13.746C22.3003 14.0204 22.0241 14.2356 21.7071 14.3702C21.5335 14.4376 21.3435 14.45 21.1626 14.4056C20.7686 14.3038 20.7553 13.9629 20.8262 13.6265C20.8684 13.4628 20.9278 13.3041 21.0032 13.1528C21.4286 13.5065 21.9561 13.7144 22.5084 13.746Z" fill="#263238"/>
<path d="M21.7071 14.3704C21.5335 14.4378 21.3435 14.4502 21.1626 14.4058C20.7686 14.304 20.7553 13.9631 20.8262 13.6267C21.0353 13.6335 21.236 13.7106 21.3959 13.8455C21.5557 13.9805 21.6654 14.1654 21.7071 14.3704Z" fill="#FF9BBC"/>
<path d="M25.0903 5.43878C24.8202 4.80997 24.5058 4.17672 24.1249 4.0483C23.7441 3.91988 23.5005 4.84982 22.637 4.90739C21.4768 4.9871 20.9144 3.91988 19.2893 3.80475C16.9511 3.64533 15.9238 5.57606 15.8706 8.90612C15.8219 11.8642 14.0329 12.1432 14.0329 12.1432C14.0329 12.1432 12.948 5.62034 14.7857 3.45935C16.6234 1.29835 20.8436 0.359552 23.6777 2.40541C24.7095 3.15379 25.0903 5.43878 25.0903 5.43878Z" fill="#263238"/>
<path d="M15.5285 10.9832C15.5285 10.9832 14.169 8.47232 13.0486 8.92843C11.9283 9.38455 12.7608 12.9139 13.9343 13.5028C14.0813 13.5912 14.2447 13.6489 14.4146 13.6724C14.5846 13.6959 14.7575 13.6847 14.923 13.6396C15.0885 13.5945 15.2431 13.5164 15.3776 13.4099C15.5121 13.3035 15.6237 13.1709 15.7056 13.0202L15.5285 10.9832Z" fill="#F7A9A0"/>
<path d="M13.3164 9.9248V9.9558C14.1445 10.3986 14.5076 11.2843 14.7335 12.1389C14.693 12.0461 14.633 11.9632 14.5574 11.8959C14.4818 11.8286 14.3925 11.7785 14.2957 11.749C14.1989 11.7195 14.0968 11.7114 13.9966 11.7252C13.8963 11.739 13.8002 11.7744 13.7149 11.829C13.6884 11.829 13.7149 11.8821 13.7149 11.8777C13.8734 11.8473 14.0373 11.8663 14.1845 11.932C14.3318 11.9977 14.4554 12.107 14.5386 12.2452C14.6728 12.4799 14.7826 12.7277 14.8663 12.9847C14.8973 13.0645 15.0434 13.0423 15.0213 12.9493V12.9272C15.1718 11.8201 14.4899 10.1728 13.3164 9.9248Z" fill="#263238"/>
<path d="M24.8191 3.49484C24.1327 3.33099 20.3288 3.44613 18.6195 4.18122C16.9102 4.91632 13.8724 7.37401 13.7174 7.50243C13.5624 7.63085 12.7786 1.36042 17.8667 0.217921C23.4065 -1.03085 24.8191 3.49484 24.8191 3.49484Z" fill="#FFC727"/>
<path d="M14.0078 7.24557C14.0078 7.24557 17.3689 2.8173 19.2376 1.7988C21.1063 0.780294 25.2911 0.213475 27.8816 1.35597C29.8965 2.24162 24.9722 4.83659 24.9722 4.83659C24.9256 4.62411 24.8301 4.42543 24.6932 4.25631C24.5564 4.0872 24.382 3.95232 24.184 3.86237C22.9264 3.36198 20.5351 3.74724 19.1712 4.20335C17.453 4.78345 14.0078 7.24557 14.0078 7.24557Z" fill="#FFC727"/>
<path opacity="0.2" d="M14.0078 7.2677C14.0078 7.2677 17.3689 2.81286 19.2376 1.79879C21.1063 0.784711 25.2911 0.213464 27.8816 1.35596C29.8965 2.24161 24.9722 4.83658 24.9722 4.83658C24.9256 4.6241 24.8301 4.42542 24.6932 4.2563C24.5564 4.08719 24.382 3.9523 24.184 3.86236C22.9264 3.36196 20.5351 3.74723 19.1712 4.20334C17.453 4.78344 14.0078 7.2677 14.0078 7.2677Z" fill="black"/>
<path d="M8.13466 27.682C7.85125 36.4146 11.075 52.7682 13.4486 53.8797C21.1095 57.4577 34.0002 57.6836 38.4152 57.7234C40.3193 57.7234 43.242 44.1818 41.3556 43.4201C40.1024 42.9153 21.2025 42.9109 20.8704 42.2378C20.5383 41.5647 16.0347 31.8402 14.0907 26.4554C11.509 19.2949 8.29851 22.5541 8.13466 27.682Z" fill="#F7A9A0"/>
<path d="M17.2793 33.3192L7.86038 38.6597C7.86038 38.6597 7.46184 26.7565 8.33421 23.2227C9.31729 19.2373 11.1329 20.6189 13.1787 23.9313C15.2246 27.2436 17.2793 33.3192 17.2793 33.3192Z" fill="#FFC727"/>
<path opacity="0.1" d="M17.2793 33.3192L7.86038 38.6597C7.86038 38.6597 7.46184 26.7565 8.33421 23.2227C9.31729 19.2373 11.1329 20.6189 13.1787 23.9313C15.2246 27.2436 17.2793 33.3192 17.2793 33.3192Z" fill="black"/>
<path d="M15.8001 28.9132C15.6539 28.3596 15.5034 27.8105 15.3351 27.2614C15.4281 27.6688 15.5344 28.0762 15.6407 28.4836C15.2997 27.7131 14.9498 26.9514 14.569 26.2119H14.5469C14.9587 27.412 15.4325 28.5899 15.8754 29.7811C16.3182 30.9723 16.761 32.1104 17.2038 33.275C17.0046 33.43 16.8097 33.5806 16.606 33.7178C16.5978 33.7231 16.592 33.7315 16.5899 33.741C16.5879 33.7506 16.5897 33.7605 16.595 33.7688C16.6002 33.777 16.6086 33.7828 16.6181 33.7848C16.6277 33.7869 16.6377 33.7851 16.6459 33.7798C16.8894 33.6558 17.133 33.5318 17.3854 33.4211C17.4146 33.4101 17.4385 33.3885 17.4525 33.3606C17.4664 33.3327 17.4694 33.3005 17.4607 33.2706C16.9647 31.8225 16.4156 30.3524 15.8001 28.9132Z" fill="#263238"/>
</svg>
