<svg width="58" height="59" viewBox="0 0 58 59" fill="none" xmlns="http://www.w3.org/2000/svg">
<path d="M36.3801 49.9199C47.6599 45.8255 53.4849 33.3621 49.3905 22.0823C45.2961 10.8024 32.8328 4.97739 21.5529 9.07179C10.2731 13.1662 4.44807 25.6295 8.54247 36.9094C12.6369 48.1893 25.1002 54.0143 36.3801 49.9199Z" fill="white" stroke="#263238" stroke-linecap="round" stroke-linejoin="round"/>
<path d="M45.8001 26.4458C44.1121 17.1484 35.2067 10.9797 25.9093 12.6676C16.6119 14.3556 10.4432 23.261 12.1312 32.5584C13.8191 41.8558 22.7245 48.0245 32.0219 46.3365C41.3193 44.6486 47.488 35.7432 45.8001 26.4458Z" fill="white" stroke="#263238" stroke-linecap="round" stroke-linejoin="round"/>
<path d="M31.2174 30.7618C31.0334 31.0871 30.7567 31.3502 30.4226 31.5177C30.0885 31.6852 29.7121 31.7494 29.3414 31.7022C28.9707 31.6551 28.6224 31.4986 28.3409 31.2528C28.0594 31.007 27.8574 30.683 27.7607 30.322C27.6639 29.961 27.6769 29.5794 27.7977 29.2258C27.9186 28.8722 28.142 28.5626 28.4395 28.3363C28.737 28.1101 29.0951 27.9776 29.4681 27.9556C29.8412 27.9335 30.2124 28.0231 30.5344 28.2127C30.9597 28.4632 31.2696 28.8708 31.3974 29.3476C31.5251 29.8243 31.4605 30.3322 31.2174 30.7618Z" fill="#263238" stroke="#263238" stroke-linecap="round" stroke-linejoin="round"/>
<path d="M29.0521 30.3123L25.8969 19.8286L26.2087 18.5793L26.9839 19.5009L29.8387 28.9996L42.6064 28.5565L43.5457 28.833L42.6832 29.6925L29.0521 30.3123Z" fill="#263238" stroke="#263238" stroke-linecap="round" stroke-linejoin="round"/>
</svg>
