<svg width="49" height="22" viewBox="0 0 49 22" fill="none" xmlns="http://www.w3.org/2000/svg">
<path d="M2.1341 21.6001L0.0859375 13.3516L1.85282 12.8407L3.59505 19.8572L5.43052 19.3264L5.73645 20.5585L2.1341 21.6001Z" fill="#EC994B"/>
<path d="M8.60373 19.8777C8.1126 20.0494 7.58974 20.0862 7.08676 19.9842C6.69828 19.8809 6.36253 19.6332 6.1423 19.2874C5.87638 18.8601 5.68399 18.3868 5.57349 17.8883L4.16543 12.2098L5.90783 11.7053L7.38549 17.6644C7.42748 17.8351 7.48296 18.0016 7.55137 18.1623C7.61055 18.3096 7.70868 18.4358 7.83462 18.5265C7.97348 18.599 8.13447 18.6148 8.28642 18.5708C8.43838 18.5268 8.5705 18.4261 8.65722 18.2883C8.71694 18.1414 8.73725 17.9812 8.71597 17.8251C8.69723 17.6497 8.66646 17.4762 8.62388 17.3059L7.14623 11.3467L8.89942 10.8391L10.3093 16.525C10.4447 17.0169 10.4952 17.5315 10.4587 18.0456C10.4252 18.4633 10.2495 18.8582 9.9632 19.1593C9.57558 19.5167 9.10685 19.7644 8.60373 19.8777Z" fill="#EC994B"/>
<path d="M11.9856 18.8166L9.94141 10.5754L11.1843 10.2157L13.8078 13.7093L12.8235 9.74123L14.2825 9.31892L16.3267 17.5601L15.1343 17.9052L12.4361 14.1024L13.4969 18.3791L11.9856 18.8166Z" fill="#EC994B"/>
<path d="M19.7448 16.7321C19.25 16.9047 18.7215 16.9307 18.2197 16.807C17.818 16.6867 17.4717 16.4253 17.2391 16.0668C16.9692 15.645 16.7738 15.1756 16.6617 14.6799L15.9241 11.7055C15.789 11.2092 15.7394 10.6902 15.7773 10.172C15.8127 9.73718 15.9923 9.32528 16.2853 9.00677C16.6642 8.63109 17.1341 8.37017 17.6421 8.2533C18.1142 8.0887 18.6166 8.05451 19.0995 8.15414C19.4676 8.24855 19.7902 8.47244 20.0132 8.7882C20.2546 9.14313 20.4286 9.5436 20.526 9.96872L20.7025 10.6807L18.9795 11.1795L18.7753 10.356C18.7367 10.2001 18.6896 10.0468 18.6344 9.89671C18.5903 9.7639 18.5087 9.64875 18.4 9.56609C18.3341 9.52745 18.2605 9.50471 18.1845 9.4995C18.1084 9.4943 18.0318 9.50676 17.9602 9.53599C17.8839 9.55112 17.8112 9.58315 17.7472 9.62988C17.6832 9.67662 17.6293 9.73695 17.5894 9.80674C17.5233 9.93975 17.4979 10.0897 17.5164 10.2363C17.5325 10.4031 17.5611 10.568 17.6021 10.7296L18.5628 14.6037C18.6035 14.773 18.6598 14.9375 18.731 15.0949C18.7875 15.2287 18.8825 15.3402 19.0032 15.4146C19.0679 15.448 19.1386 15.4674 19.2113 15.4717C19.284 15.476 19.357 15.4651 19.4262 15.4396C19.5003 15.4258 19.5709 15.3951 19.6327 15.3496C19.6946 15.3041 19.7461 15.245 19.7836 15.1767C19.8392 15.0425 19.8576 14.8956 19.8367 14.7529C19.8171 14.5887 19.7872 14.4264 19.7471 14.2668L19.5336 13.4061L21.2566 12.9072L21.4332 13.6192C21.5462 14.0453 21.5835 14.4908 21.5432 14.9343C21.5022 15.3363 21.3325 15.7153 21.0613 16.0102C20.7814 16.3184 20.3425 16.559 19.7448 16.7321Z" fill="#EC994B"/>
<path d="M22.9212 15.7273L20.8789 7.49023L22.6407 6.98006L23.4674 10.3143L24.6984 9.95782L23.8717 6.62361L25.6443 6.11031L27.6867 14.3473L25.914 14.8606L25.021 11.2588L23.79 11.6152L24.6826 15.2152L22.9212 15.7273Z" fill="#EC994B"/>
<path d="M32.0303 13.1475L30.323 6.26614L29.1211 6.61397L28.7852 5.26001L32.955 4.0533L33.2909 5.40726L32.098 5.75248L33.8053 12.6339L32.0303 13.1475Z" fill="#EC994B"/>
<path d="M35.6544 12.1383L33.5898 3.86987L35.3636 3.35984L37.4282 11.6283L35.6544 12.1383Z" fill="#EC994B"/>
<path d="M38.5152 11.3239L36.6131 3.05688L38.5011 2.50982L40.5612 7.04019L40.319 1.98306L42.1351 1.45682L44.312 9.64418L43.0635 10.0059L41.5598 4.57418L41.9911 10.3167L40.881 10.6384L38.5318 5.4078L39.7816 10.9569L38.5152 11.3239Z" fill="#EC994B"/>
<path d="M45.2708 9.41843L43.2227 1.16992L46.8159 0.130928L47.1246 1.37416L45.2982 1.90227L45.8065 3.9495L47.1944 3.5482L47.5077 4.81005L46.1145 5.21291L46.7263 7.67704L48.5726 7.1432L48.8785 8.37526L45.2708 9.41843Z" fill="#EC994B"/>
</svg>
