<svg width="277" height="230" viewBox="0 0 277 230" fill="none" xmlns="http://www.w3.org/2000/svg">
<path d="M40.5639 208.663C94.665 236.923 182.341 236.923 236.429 208.663C290.517 180.403 290.53 134.601 236.429 106.342C182.328 78.0817 94.6523 78.0881 40.5639 106.342C-13.5245 134.595 -13.5181 180.409 40.5639 208.663Z" fill="#F5F5F5"/>
<path d="M24.5173 163.612H26.7959C27.8403 160.125 28.5249 156.54 28.8391 152.913C29.3355 146.198 26.0831 135.919 20.1256 132.476C14.1681 129.032 10.9411 133.29 12.9397 136.931C14.9383 140.572 21.6786 150.927 21.7677 159.838L24.5173 163.612Z" fill="#EC994B"/>
<path d="M23.9713 163.612H24.6078C25.2296 159.215 25.2296 154.752 24.6078 150.354C23.5767 141.641 20.7125 137.593 18.052 134.78C17.9937 134.718 17.9134 134.682 17.8287 134.68C17.7439 134.677 17.6617 134.709 17.6001 134.767C17.5385 134.825 17.5025 134.905 17.5001 134.99C17.4977 135.075 17.5291 135.157 17.5874 135.219C20.1778 137.949 22.9656 141.896 23.9522 150.424C24.5827 154.797 24.5891 159.238 23.9713 163.612Z" fill="white"/>
<path d="M24.7023 163.612C23.5311 158.088 18.2101 151.519 13.1883 150.386C7.36445 149.113 4.53209 152.188 5.36589 154.842C6.19968 157.496 10.8015 158.731 15.2696 160.812C16.7741 161.508 18.1494 162.455 19.3367 163.612H24.7023Z" fill="#EC994B"/>
<path d="M22.5855 163.612H23.2665C20.8033 157.419 15.2023 153.002 10.6196 152.595C10.5781 152.59 10.5362 152.594 10.4962 152.607C10.4563 152.619 10.4193 152.639 10.3872 152.665C10.3552 152.692 10.3288 152.725 10.3097 152.762C10.2906 152.799 10.2791 152.84 10.2759 152.881C10.2706 152.923 10.2739 152.965 10.2857 153.006C10.2974 153.046 10.3174 153.083 10.3442 153.116C10.3711 153.148 10.4044 153.174 10.4419 153.193C10.4794 153.212 10.5204 153.223 10.5623 153.225C14.8904 153.613 20.1796 157.763 22.5855 163.612Z" fill="white"/>
<path d="M230.169 105.38L234.936 107.882L235.337 104.897C232.976 98.2391 234.917 90.6904 237.469 87.5462C240.021 84.402 239.531 82.0915 238.608 81.0604C237.686 80.0293 234.185 79.2465 230.722 83.2945C227.26 87.3425 226.464 92.2562 227.044 97.2144C227.413 100.314 229.042 103.496 230.169 105.38Z" fill="#EC994B"/>
<path opacity="0.2" d="M230.169 105.38L234.936 107.882L235.337 104.897C232.976 98.2391 234.917 90.6904 237.469 87.5462C240.021 84.402 239.531 82.0915 238.608 81.0604C237.686 80.0293 234.185 79.2465 230.722 83.2945C227.26 87.3425 226.464 92.2562 227.044 97.2144C227.413 100.314 229.042 103.496 230.169 105.38Z" fill="black"/>
<path d="M232.131 106.412L233.073 106.908C233.064 106.89 233.053 106.873 233.041 106.857C231.692 105.253 229.948 97.399 230.68 92.7972C231.584 87.1134 234.499 83.4027 236.994 81.8306C237.025 81.8118 237.051 81.787 237.072 81.7578C237.093 81.7285 237.107 81.6954 237.115 81.6604C237.123 81.6253 237.123 81.5891 237.117 81.5538C237.11 81.5185 237.097 81.4849 237.077 81.455C237.036 81.3942 236.974 81.3515 236.903 81.3361C236.831 81.3206 236.757 81.3336 236.695 81.3723C234.149 83.0081 231.068 86.8461 230.133 92.7144C229.458 96.998 230.807 103.783 232.131 106.412Z" fill="white"/>
<path d="M235.028 94.0193C236.422 97.4372 236.415 99.1111 234.143 99.4612C232.094 99.7667 229.605 102.255 231.916 106.297L245.434 113.387C245.468 112.632 245.655 111.891 245.983 111.209C246.312 110.528 246.774 109.92 247.344 109.422C249.565 107.201 251.615 105.527 251.296 103.057C250.978 100.588 248.833 98.2073 248.477 96.056C248.12 93.9047 249.215 92.6763 251.551 90.264C253.887 87.8517 256.006 84.1092 252.888 82.4034C249.769 80.6977 246.198 83.6191 244.709 85.5859C243.219 87.5526 241.857 88.4182 238.923 88.2527C235.989 88.0872 233.634 90.6014 235.028 94.0193Z" fill="#EC994B"/>
<path d="M238.852 109.938C238.789 99.4486 246.306 87.1644 250.487 84.6821C250.549 84.6427 250.593 84.5812 250.611 84.5102C250.629 84.4392 250.619 84.364 250.583 84.3002C250.544 84.239 250.484 84.1949 250.414 84.1771C250.344 84.1593 250.27 84.1692 250.207 84.2048C245.968 86.7507 238.388 99.0412 238.305 109.664L238.852 109.938Z" fill="white"/>
<path d="M240.865 99.0348C240.807 99.0479 240.747 99.0412 240.694 99.0158C240.641 98.9904 240.598 98.9477 240.572 98.8947C239.358 96.6294 238.336 94.2661 237.517 91.8298C237.506 91.7955 237.502 91.7594 237.505 91.7236C237.508 91.6878 237.518 91.6529 237.535 91.621C237.551 91.5891 237.574 91.5608 237.601 91.5376C237.629 91.5144 237.661 91.4969 237.695 91.4861C237.729 91.4752 237.765 91.4712 237.801 91.4743C237.837 91.4773 237.872 91.4874 237.904 91.504C237.936 91.5205 237.964 91.5432 237.987 91.5707C238.01 91.5982 238.028 91.63 238.039 91.6643C238.85 94.0668 239.859 96.398 241.056 98.6338C241.09 98.6989 241.097 98.7747 241.075 98.845C241.054 98.9152 241.006 98.9742 240.941 99.0093L240.865 99.0348Z" fill="white"/>
<path d="M239.06 105.463C239.008 105.473 238.954 105.468 238.905 105.449C238.855 105.43 238.812 105.397 238.78 105.355C238.738 105.294 238.722 105.219 238.735 105.146C238.748 105.074 238.789 105.009 238.85 104.967C241.591 103.048 244.916 102.147 248.251 102.421C248.323 102.43 248.389 102.468 248.434 102.526C248.479 102.584 248.499 102.657 248.489 102.73C248.48 102.802 248.442 102.868 248.385 102.913C248.327 102.958 248.253 102.978 248.181 102.968C244.988 102.725 241.808 103.581 239.168 105.393C239.137 105.424 239.1 105.447 239.06 105.463Z" fill="white"/>
<path d="M159.176 41.3883L143.665 32.433L128.16 41.3883L143.665 50.3436L159.176 41.3883Z" fill="#F5F5F5"/>
<path d="M143.664 68.2606L159.175 59.3053V41.3883L143.664 50.3436V68.2606Z" fill="#EBEBEB"/>
<path d="M146.655 62.3159C146.573 62.3174 146.492 62.2977 146.42 62.2586C146.321 62.1863 146.242 62.0898 146.191 61.9784C146.14 61.867 146.118 61.7444 146.127 61.6221V59.7127V59.5727H146.223L147.712 58.7007V60.8202C147.71 61.0931 147.642 61.3616 147.515 61.6031C147.388 61.8445 147.204 62.0519 146.98 62.2077C146.884 62.2727 146.771 62.3102 146.655 62.3159ZM146.369 59.8527V61.6094C146.358 61.6912 146.369 61.7743 146.399 61.851C146.429 61.9278 146.478 61.9957 146.541 62.0486C146.592 62.0716 146.649 62.0802 146.705 62.0735C146.761 62.0668 146.814 62.045 146.859 62.0104C147.05 61.8774 147.207 61.7016 147.317 61.4972C147.428 61.2927 147.489 61.0652 147.496 60.8329V60.6801H146.942L146.834 59.9355L146.369 59.8527ZM147.133 60.4383H147.477V59.1335L146.585 59.649L147.025 59.7318L147.133 60.4383Z" fill="white"/>
<path d="M146.922 63.8307C146.89 63.8307 146.859 63.8179 146.836 63.7953C146.814 63.7726 146.801 63.7418 146.801 63.7098V62.1185C146.8 62.1024 146.803 62.0863 146.808 62.0712C146.814 62.0561 146.823 62.0424 146.834 62.031C146.846 62.0196 146.859 62.0107 146.875 62.0049C146.89 61.9992 146.906 61.9967 146.922 61.9976C146.954 61.9976 146.985 62.0104 147.007 62.033C147.03 62.0557 147.043 62.0865 147.043 62.1185V63.6843C147.046 63.702 147.044 63.7201 147.04 63.7374C147.035 63.7547 147.027 63.7707 147.015 63.7846C147.004 63.7984 146.99 63.8096 146.973 63.8176C146.957 63.8255 146.94 63.83 146.922 63.8307Z" fill="white"/>
<path d="M146.23 64.2317C146.209 64.2315 146.188 64.2255 146.17 64.2143C146.152 64.203 146.138 64.187 146.128 64.168C146.119 64.155 146.113 64.1402 146.111 64.1247C146.108 64.1092 146.109 64.0933 146.114 64.0781C146.118 64.063 146.125 64.0489 146.136 64.037C146.146 64.025 146.158 64.0154 146.173 64.0089L147.554 63.2069C147.568 63.199 147.583 63.1938 147.599 63.1917C147.615 63.1896 147.631 63.1907 147.646 63.1948C147.661 63.199 147.676 63.2061 147.688 63.2158C147.701 63.2255 147.712 63.2377 147.719 63.2515C147.734 63.2797 147.737 63.3122 147.729 63.3428C147.721 63.3735 147.702 63.3999 147.675 63.417L146.287 64.2126L146.23 64.2317Z" fill="white"/>
<path d="M151.169 61.482C151.125 61.4953 151.079 61.4953 151.035 61.482C150.989 61.4508 150.951 61.4079 150.927 61.3576C150.902 61.3073 150.891 61.2515 150.895 61.1956V60.871C150.894 60.8554 150.897 60.8399 150.902 60.8252C150.907 60.8106 150.916 60.7972 150.927 60.7859C150.937 60.7745 150.95 60.7655 150.965 60.7594C150.979 60.7532 150.994 60.7501 151.01 60.7501C151.026 60.7492 151.042 60.7517 151.057 60.7574C151.072 60.7632 151.086 60.772 151.097 60.7834C151.109 60.7949 151.118 60.8086 151.123 60.8237C151.129 60.8388 151.132 60.8549 151.131 60.871V61.1383C151.131 61.1893 151.131 61.2147 151.131 61.2147C151.131 61.2147 151.169 61.2147 151.207 61.2147C151.281 61.1474 151.34 61.0647 151.378 60.9723C151.417 60.8798 151.434 60.7801 151.43 60.6801V58.5924C151.43 58.5768 151.433 58.5614 151.439 58.547C151.445 58.5327 151.454 58.5198 151.466 58.5091C151.477 58.4983 151.49 58.49 151.505 58.4847C151.52 58.4793 151.535 58.477 151.551 58.4778C151.581 58.4778 151.61 58.4899 151.632 58.5114C151.653 58.5329 151.665 58.562 151.665 58.5924V60.7183C151.67 60.86 151.642 61.0008 151.584 61.13C151.525 61.2591 151.438 61.3731 151.328 61.4629C151.277 61.4793 151.223 61.4858 151.169 61.482Z" fill="white"/>
<path d="M149.906 59.6299V59.4262C149.936 58.8961 150.09 58.3804 150.355 57.9205C150.62 57.4606 150.99 57.0694 151.434 56.7784C151.593 56.6447 151.789 56.5631 151.996 56.5448C152.203 56.5264 152.41 56.572 152.59 56.6756C152.77 56.7791 152.914 56.9355 153.002 57.1236C153.09 57.3116 153.118 57.5222 153.082 57.7268V57.7968L149.906 59.6299ZM152.147 56.8039C151.936 56.8105 151.732 56.8743 151.555 56.9885C151.177 57.2378 150.856 57.5649 150.615 57.948C150.373 58.331 150.216 58.7612 150.154 59.2098L152.84 57.6631C152.851 57.5129 152.822 57.3626 152.757 57.2266C152.693 57.0906 152.594 56.9736 152.471 56.8866C152.372 56.8306 152.26 56.802 152.147 56.8039Z" fill="white"/>
<path d="M155.426 59.038C155.395 59.038 155.365 59.0261 155.342 59.0048C155.32 58.9835 155.306 58.9544 155.305 58.9234V54.8626C155.305 54.8306 155.317 54.7998 155.34 54.7771C155.363 54.7544 155.394 54.7417 155.426 54.7417C155.458 54.7417 155.488 54.7544 155.511 54.7771C155.534 54.7998 155.547 54.8306 155.547 54.8626V58.9234C155.545 58.9544 155.531 58.9835 155.509 59.0048C155.486 59.0261 155.457 59.038 155.426 59.038Z" fill="white"/>
<path d="M155.099 55.7855H155.054C155.039 55.7793 155.026 55.7702 155.015 55.7588C155.004 55.7475 154.995 55.734 154.989 55.7192C154.983 55.7044 154.98 55.6886 154.98 55.6727C154.981 55.6568 154.984 55.641 154.99 55.6264L155.417 54.6462L155.888 55.1936C155.898 55.2053 155.905 55.2189 155.91 55.2335C155.915 55.2482 155.917 55.2636 155.916 55.279C155.915 55.2944 155.91 55.3093 155.903 55.3231C155.896 55.3368 155.887 55.3491 155.875 55.3591C155.863 55.3691 155.85 55.3768 155.835 55.3815C155.82 55.3863 155.805 55.3882 155.79 55.387C155.774 55.3858 155.759 55.3816 155.746 55.3747C155.732 55.3677 155.72 55.3581 155.71 55.3464L155.48 55.0918L155.207 55.7283C155.196 55.7471 155.18 55.7624 155.161 55.7726C155.142 55.7827 155.12 55.7872 155.099 55.7855Z" fill="white"/>
<path d="M156.551 58.4143C156.52 58.4127 156.491 58.3992 156.47 58.3767C156.448 58.3542 156.437 58.3244 156.437 58.2934V54.2326C156.432 54.2148 156.432 54.1964 156.436 54.1786C156.44 54.1608 156.448 54.1442 156.46 54.1299C156.471 54.1156 156.485 54.1041 156.502 54.0961C156.518 54.0882 156.536 54.0841 156.554 54.0841C156.573 54.0841 156.591 54.0882 156.607 54.0961C156.623 54.1041 156.638 54.1156 156.649 54.1299C156.66 54.1442 156.668 54.1608 156.672 54.1786C156.676 54.1964 156.676 54.2148 156.672 54.2326V58.2934C156.672 58.3254 156.659 58.3562 156.637 58.3789C156.614 58.4016 156.583 58.4143 156.551 58.4143Z" fill="white"/>
<path d="M156.204 55.1554H156.159C156.145 55.1492 156.132 55.1401 156.12 55.1287C156.109 55.1173 156.101 55.1039 156.095 55.0891C156.089 55.0743 156.086 55.0585 156.086 55.0426C156.086 55.0266 156.09 55.0109 156.096 54.9963L156.522 54.0161L156.993 54.5635C157.014 54.5859 157.026 54.6155 157.026 54.6462C157.026 54.677 157.014 54.7066 156.993 54.729C156.97 54.7504 156.939 54.7624 156.907 54.7624C156.876 54.7624 156.845 54.7504 156.821 54.729L156.599 54.468L156.325 55.1045C156.312 55.1237 156.293 55.1388 156.272 55.1478C156.251 55.1568 156.227 55.1595 156.204 55.1554Z" fill="white"/>
<path d="M143.663 68.2606L128.152 59.3053L128.159 41.3883L143.663 50.3436V68.2606Z" fill="#E0E0E0"/>
<path d="M136.753 46.3528L152.251 37.3912L150.501 36.3792L134.996 45.3408L136.753 46.3528Z" fill="white"/>
<path d="M130.507 51.6612L136.064 54.8436C136.383 55.0541 136.649 55.3364 136.841 55.6679C137.032 55.9994 137.143 56.371 137.165 56.753V60.1773C137.165 60.8838 136.669 61.1702 136.064 60.8138L130.507 57.6314C130.187 57.4212 129.921 57.139 129.73 56.8075C129.539 56.4759 129.428 56.1041 129.406 55.7219V52.2977C129.406 51.5912 129.903 51.3111 130.507 51.6612Z" fill="#EC994B"/>
<path d="M130.082 52.514L130.292 52.6413V56.4411L130.082 56.3202V52.514Z" fill="#EC994B"/>
<path d="M130.941 53.0105L131.304 53.2269V57.0267L130.941 56.8167V53.0105Z" fill="#EC994B"/>
<path d="M131.801 53.507L132.011 53.6279V57.4341L131.801 57.3131V53.507Z" fill="#EC994B"/>
<path d="M132.441 53.8761L132.868 54.1243V57.9305L132.441 57.6759V53.8761Z" fill="#EC994B"/>
<path d="M133.512 54.4999L133.728 54.6208V58.427L133.512 58.2997V54.4999Z" fill="#EC994B"/>
<path d="M134.135 54.8499L134.581 55.1172V58.917L134.129 58.6497L134.135 54.8499Z" fill="#EC994B"/>
<path d="M135.23 55.4928L135.441 55.6137V59.4135L135.23 59.2926V55.4928Z" fill="#EC994B"/>
<path d="M135.723 55.7665L135.831 55.8301V59.6299L135.723 59.5726V55.7665Z" fill="#EC994B"/>
<path d="M134.844 55.2827L134.946 55.3464V59.1462L134.844 59.0889V55.2827Z" fill="#EC994B"/>
<path d="M133.113 54.2708L133.215 54.328V58.1342L133.113 58.0705V54.2708Z" fill="#EC994B"/>
<path d="M132.16 53.7233L132.268 53.7869V57.5931L132.16 57.5294V53.7233Z" fill="#EC994B"/>
<path d="M131.484 53.3479L131.593 53.4116V57.2177L131.484 57.1541V53.3479Z" fill="#EC994B"/>
<path d="M130.559 52.7877L130.667 52.8514V56.6575L130.559 56.5939V52.7877Z" fill="#EC994B"/>
<path d="M136.09 55.9828L136.3 56.1037V59.9099L136.09 59.789V55.9828Z" fill="#EC994B"/>
<path d="M138.494 38.4032L120.392 27.9585L102.297 38.4032L120.392 48.8542L138.494 38.4032Z" fill="#F5F5F5"/>
<path d="M112.637 44.3733L130.739 33.9286L128.982 32.9166L110.887 43.3613L112.637 44.3733Z" fill="white"/>
<path d="M120.395 81.6904L138.496 71.2458V38.4032L120.395 48.8543V81.6904Z" fill="#EBEBEB"/>
<path d="M123.383 75.7775C123.3 75.7789 123.218 75.7569 123.147 75.7138C123.047 75.6428 122.967 75.5466 122.916 75.4348C122.864 75.3231 122.843 75.1998 122.855 75.0773V73.1679V73.0279H122.956L124.439 72.1559V74.2754C124.436 74.5481 124.368 74.8163 124.241 75.0575C124.114 75.2988 123.931 75.5063 123.707 75.6629C123.612 75.7302 123.5 75.7698 123.383 75.7775ZM123.096 73.3143V75.071C123.086 75.1527 123.096 75.2358 123.126 75.3126C123.156 75.3894 123.205 75.4573 123.268 75.5102C123.32 75.5332 123.377 75.5418 123.433 75.5351C123.489 75.5283 123.542 75.5065 123.587 75.472C123.777 75.339 123.934 75.1632 124.045 74.9587C124.155 74.7543 124.216 74.5268 124.223 74.2945V74.1417H123.669L123.561 73.397L123.096 73.3143ZM123.86 73.8999H124.236V72.5951L123.345 73.117L123.784 73.1934L123.86 73.8999Z" fill="white"/>
<path d="M123.652 77.2668C123.62 77.2668 123.589 77.2541 123.567 77.2314C123.544 77.2087 123.531 77.178 123.531 77.1459V75.5483C123.531 75.5327 123.534 75.5173 123.54 75.503C123.547 75.4886 123.556 75.4757 123.567 75.465C123.578 75.4543 123.592 75.446 123.606 75.4406C123.621 75.4352 123.637 75.4329 123.652 75.4338C123.683 75.4337 123.713 75.4456 123.735 75.4669C123.758 75.4882 123.771 75.5174 123.773 75.5483V77.1459C123.772 77.1775 123.758 77.2074 123.736 77.2297C123.714 77.2521 123.684 77.2653 123.652 77.2668Z" fill="white"/>
<path d="M122.968 77.687C122.947 77.6874 122.927 77.6824 122.909 77.6723C122.891 77.6622 122.876 77.6475 122.866 77.6297C122.851 77.6015 122.848 77.5689 122.856 77.5383C122.864 77.5077 122.884 77.4813 122.91 77.4642L124.291 76.6686C124.305 76.6606 124.32 76.6555 124.336 76.6534C124.352 76.6513 124.368 76.6524 124.383 76.6565C124.399 76.6606 124.413 76.6678 124.426 76.6775C124.438 76.6872 124.449 76.6993 124.457 76.7132C124.465 76.7264 124.47 76.7412 124.472 76.7565C124.474 76.7718 124.473 76.7873 124.469 76.8022C124.464 76.8171 124.457 76.8309 124.448 76.843C124.438 76.855 124.426 76.865 124.412 76.8723L123.025 77.6742C123.008 77.6844 122.987 77.6888 122.968 77.687Z" fill="white"/>
<path d="M127.899 74.9182C127.853 74.9183 127.807 74.9074 127.766 74.8864C127.719 74.8552 127.682 74.8123 127.657 74.762C127.633 74.7117 127.622 74.6558 127.626 74.6V74.269C127.626 74.2534 127.629 74.238 127.635 74.2236C127.641 74.2093 127.65 74.1964 127.662 74.1856C127.673 74.1749 127.686 74.1666 127.701 74.1612C127.716 74.1559 127.731 74.1535 127.747 74.1544C127.762 74.1544 127.777 74.1574 127.791 74.1631C127.804 74.1689 127.817 74.1773 127.828 74.188C127.838 74.1986 127.847 74.2112 127.853 74.2251C127.858 74.239 127.861 74.2539 127.861 74.269V74.6C127.861 74.6445 127.861 74.67 127.861 74.6763C127.861 74.6827 127.899 74.6763 127.938 74.6763C128.012 74.6078 128.07 74.5239 128.109 74.4305C128.147 74.337 128.165 74.2363 128.16 74.1353V72.0158C128.16 71.9838 128.173 71.953 128.196 71.9303C128.219 71.9076 128.249 71.8949 128.281 71.8949C128.313 71.8964 128.343 71.9097 128.365 71.932C128.388 71.9544 128.401 71.9843 128.402 72.0158V74.1353C128.408 74.2778 128.38 74.4197 128.32 74.5492C128.261 74.6787 128.171 74.7921 128.059 74.88C128.009 74.9047 127.955 74.9177 127.899 74.9182Z" fill="white"/>
<path d="M126.637 73.066V72.856C126.667 72.3269 126.821 71.8122 127.086 71.3535C127.351 70.8947 127.721 70.5046 128.164 70.2146C128.323 70.0809 128.519 69.9993 128.726 69.9809C128.933 69.9625 129.14 70.0082 129.32 70.1117C129.5 70.2153 129.644 70.3717 129.732 70.5597C129.82 70.7478 129.848 70.9584 129.813 71.1629V71.2329L126.637 73.066ZM128.877 70.2337C128.667 70.2433 128.463 70.3069 128.285 70.4182C127.906 70.6683 127.586 70.9964 127.344 71.3806C127.103 71.7648 126.946 72.1963 126.885 72.6459L129.571 71.0993C129.58 70.9482 129.551 70.7973 129.487 70.6604C129.422 70.5235 129.324 70.4052 129.202 70.3164C129.102 70.2622 128.991 70.2338 128.877 70.2337Z" fill="white"/>
<path d="M132.18 72.4741C132.147 72.4741 132.117 72.4614 132.094 72.4387C132.071 72.416 132.059 72.3853 132.059 72.3532V68.2924C132.059 68.2604 132.071 68.2296 132.094 68.2069C132.117 68.1842 132.147 68.1715 132.18 68.1715C132.212 68.1715 132.242 68.1842 132.265 68.2069C132.288 68.2296 132.3 68.2604 132.3 68.2924V72.3532C132.3 72.3853 132.288 72.416 132.265 72.4387C132.242 72.4614 132.212 72.4741 132.18 72.4741Z" fill="white"/>
<path d="M131.829 69.2217H131.784C131.77 69.2161 131.757 69.2077 131.746 69.1969C131.734 69.1861 131.726 69.1732 131.72 69.1589C131.714 69.1446 131.711 69.1293 131.711 69.1138C131.711 69.0984 131.714 69.0831 131.721 69.0689L132.147 68.0887L132.618 68.6361C132.638 68.6598 132.648 68.6905 132.646 68.7215C132.643 68.7525 132.629 68.7813 132.605 68.8016C132.582 68.8219 132.551 68.8319 132.52 68.8295C132.489 68.8271 132.46 68.8125 132.44 68.7889L132.211 68.5279L131.937 69.1644C131.926 69.1832 131.91 69.1986 131.891 69.2087C131.872 69.2188 131.85 69.2233 131.829 69.2217Z" fill="white"/>
<path d="M133.283 71.8441C133.252 71.8441 133.223 71.832 133.202 71.8105C133.18 71.789 133.168 71.7599 133.168 71.7295V67.6687C133.167 67.6531 133.17 67.6376 133.175 67.6229C133.18 67.6083 133.189 67.5949 133.199 67.5836C133.21 67.5722 133.223 67.5632 133.237 67.5571C133.252 67.5509 133.267 67.5478 133.283 67.5478C133.299 67.5469 133.315 67.5494 133.33 67.5551C133.345 67.5609 133.359 67.5697 133.37 67.5812C133.382 67.5926 133.391 67.6063 133.396 67.6214C133.402 67.6365 133.405 67.6526 133.404 67.6687V71.7295C133.404 71.7451 133.401 71.7605 133.394 71.7749C133.388 71.7892 133.379 71.8021 133.368 71.8128C133.357 71.8236 133.343 71.8319 133.329 71.8372C133.314 71.8426 133.298 71.8449 133.283 71.8441Z" fill="white"/>
<path d="M132.939 68.5916H132.888C132.86 68.5777 132.837 68.5538 132.826 68.5243C132.814 68.4949 132.813 68.4621 132.824 68.4325L133.251 67.4523L133.728 67.9996C133.748 68.0227 133.759 68.0521 133.759 68.0824C133.759 68.1127 133.748 68.1421 133.728 68.1651C133.717 68.1765 133.704 68.1855 133.689 68.1917C133.674 68.1978 133.658 68.201 133.642 68.201C133.626 68.201 133.611 68.1978 133.596 68.1917C133.581 68.1855 133.568 68.1765 133.556 68.1651L133.334 67.9042L133.06 68.5407C133.047 68.5605 133.029 68.576 133.008 68.5851C132.986 68.5942 132.962 68.5965 132.939 68.5916Z" fill="white"/>
<path d="M120.392 81.6904L102.297 71.2458V38.4032L120.392 48.8543V81.6904Z" fill="#E0E0E0"/>
<path d="M105.98 64.4163L111.53 67.5987C111.851 67.8082 112.119 68.09 112.311 68.4217C112.503 68.7533 112.615 69.1254 112.638 69.5082V72.9388C112.638 73.6389 112.141 73.9254 111.53 73.5753L105.98 70.3929C105.659 70.1838 105.392 69.9019 105.201 69.5701C105.009 69.2383 104.899 68.8659 104.879 68.4834V65.0592C104.879 64.3208 105.375 64.0662 105.98 64.4163Z" fill="#F5F5F5"/>
<path d="M105.551 65.2692L105.761 65.3965V69.1963L105.551 69.0753V65.2692Z" fill="#E0E0E0"/>
<path d="M106.41 65.7656L106.773 65.982V69.7882L106.41 69.5718V65.7656Z" fill="#E0E0E0"/>
<path d="M107.262 66.2621L107.478 66.383L107.472 70.1892L107.262 70.0683V66.2621Z" fill="#E0E0E0"/>
<path d="M107.91 66.6312L108.33 66.8795V70.6856L107.91 70.431V66.6312Z" fill="#E0E0E0"/>
<path d="M108.98 67.255L109.191 67.3759V71.1821L108.98 71.0548V67.255Z" fill="#E0E0E0"/>
<path d="M109.602 67.6051L110.053 67.8724V71.6722L109.602 71.4049V67.6051Z" fill="#E0E0E0"/>
<path d="M110.699 68.2415L110.909 68.3687V72.1686L110.699 72.0476V68.2415Z" fill="#E0E0E0"/>
<path d="M111.191 68.5215L111.3 68.5851V72.3913L111.191 72.3277V68.5215Z" fill="#E0E0E0"/>
<path d="M110.312 68.0378L110.414 68.1015V71.9013L110.312 71.844V68.0378Z" fill="#E0E0E0"/>
<path d="M108.582 67.0259L108.684 67.0832V70.8893L108.582 70.8257V67.0259Z" fill="#E0E0E0"/>
<path d="M107.633 66.4785L107.735 66.5422V70.3483L107.633 70.2847V66.4785Z" fill="#E0E0E0"/>
<path d="M106.953 66.1029L107.061 66.1665V69.9727L106.953 69.9091V66.1029Z" fill="#E0E0E0"/>
<path d="M106.027 65.5428L106.136 65.6065V69.4127L106.027 69.349V65.5428Z" fill="#E0E0E0"/>
<path d="M111.562 68.738L111.773 68.859V72.6651L111.562 72.5442V68.738Z" fill="#E0E0E0"/>
<path d="M110.887 47.6004L112.637 48.6124V44.3735L110.887 43.3615V47.6004Z" fill="#F0F0F0"/>
<path d="M84.1941 72.7351L71.2671 65.2755L53.1719 75.7202L66.0989 83.1862L84.1941 72.7351Z" fill="#F5F5F5"/>
<path d="M66.1016 113.037L84.1968 102.593V72.7351L66.1016 83.1862V113.037Z" fill="#EBEBEB"/>
<path d="M69.0871 107.099C69.0062 107.101 68.9265 107.078 68.858 107.035C68.7581 106.964 68.6785 106.867 68.6272 106.756C68.5758 106.644 68.5545 106.521 68.5652 106.399V104.489V104.349H68.6607L70.1501 103.477V105.597C70.1469 105.87 70.0789 106.138 69.9516 106.379C69.8244 106.62 69.6415 106.828 69.4181 106.984C69.3198 107.051 69.2056 107.09 69.0871 107.099ZM68.8071 104.636V106.392C68.7952 106.474 68.8049 106.558 68.835 106.635C68.8651 106.712 68.9147 106.779 68.9789 106.832C69.031 106.852 69.0873 106.859 69.1429 106.853C69.1984 106.846 69.2514 106.826 69.2972 106.793C69.4878 106.66 69.6446 106.485 69.7551 106.28C69.8657 106.076 69.9268 105.848 69.9336 105.616V105.463H69.3799L69.2717 104.718L68.8071 104.636ZM69.5709 105.221H69.9146V103.91L69.0235 104.432L69.4627 104.508L69.5709 105.221Z" fill="white"/>
<path d="M69.3592 108.614C69.3271 108.614 69.2964 108.601 69.2737 108.578C69.251 108.556 69.2383 108.525 69.2383 108.493V106.895C69.2383 106.88 69.2414 106.864 69.2476 106.85C69.2537 106.835 69.2627 106.823 69.2741 106.812C69.2854 106.801 69.2988 106.793 69.3134 106.787C69.3281 106.782 69.3436 106.78 69.3592 106.781C69.3896 106.781 69.4187 106.793 69.4402 106.814C69.4617 106.836 69.4738 106.865 69.4738 106.895V108.493C69.4738 108.524 69.462 108.554 69.4406 108.576C69.4193 108.599 69.3902 108.612 69.3592 108.614Z" fill="white"/>
<path d="M68.6694 109.008C68.6487 109.009 68.6281 109.005 68.6101 108.995C68.592 108.984 68.5772 108.969 68.5675 108.951C68.5584 108.938 68.5521 108.923 68.5491 108.907C68.546 108.892 68.5463 108.875 68.5499 108.86C68.5535 108.844 68.5604 108.83 68.57 108.817C68.5796 108.804 68.5917 108.793 68.6057 108.785L69.9933 107.99C70.007 107.982 70.0223 107.977 70.0381 107.975C70.0538 107.973 70.0699 107.974 70.0853 107.978C70.1006 107.982 70.115 107.989 70.1276 107.999C70.1403 108.009 70.1508 108.021 70.1587 108.034C70.1666 108.048 70.1716 108.062 70.1736 108.078C70.1756 108.093 70.1745 108.109 70.1704 108.123C70.1662 108.138 70.1591 108.152 70.1494 108.164C70.1398 108.176 70.1278 108.186 70.1142 108.194L68.7267 108.996C68.7094 109.006 68.6893 109.01 68.6694 109.008Z" fill="white"/>
<path d="M73.6065 106.265C73.56 106.265 73.5142 106.254 73.4728 106.233C73.4264 106.202 73.3889 106.159 73.3644 106.109C73.3398 106.058 73.3289 106.003 73.3328 105.947V105.616C73.3328 105.585 73.3449 105.556 73.3664 105.535C73.3878 105.513 73.417 105.501 73.4474 105.501C73.4629 105.5 73.4785 105.503 73.4932 105.508C73.5078 105.513 73.5212 105.522 73.5325 105.532C73.5439 105.543 73.5529 105.556 73.559 105.57C73.5652 105.585 73.5683 105.6 73.5683 105.616V105.947C73.5683 105.991 73.5683 106.017 73.5683 106.023C73.5683 106.029 73.6065 106.023 73.6447 106.023C73.7176 105.954 73.7752 105.869 73.8136 105.776C73.8519 105.683 73.8703 105.583 73.8675 105.482V103.363C73.8633 103.345 73.8632 103.326 73.8672 103.309C73.8712 103.291 73.8791 103.274 73.8904 103.26C73.9018 103.246 73.9162 103.234 73.9326 103.226C73.949 103.218 73.967 103.214 73.9852 103.214C74.0034 103.214 74.0214 103.218 74.0378 103.226C74.0542 103.234 74.0686 103.246 74.08 103.26C74.0913 103.274 74.0992 103.291 74.1032 103.309C74.1072 103.326 74.1071 103.345 74.1029 103.363V105.482C74.1082 105.624 74.0804 105.765 74.0219 105.894C73.9634 106.023 73.8756 106.137 73.7656 106.227C73.7162 106.251 73.6617 106.265 73.6065 106.265Z" fill="white"/>
<path d="M72.3438 104.419V104.209C72.3739 103.68 72.5278 103.165 72.7931 102.707C73.0585 102.248 73.4277 101.858 73.8713 101.568C74.0294 101.433 74.2255 101.35 74.4326 101.331C74.6397 101.312 74.8476 101.357 75.0277 101.461C75.2078 101.565 75.3512 101.723 75.4382 101.912C75.5252 102.1 75.5515 102.312 75.5134 102.516V102.586L72.3438 104.419ZM74.5842 101.587C74.3743 101.596 74.1704 101.66 73.9922 101.771C73.6135 102.021 73.2926 102.35 73.0511 102.734C72.8096 103.118 72.653 103.549 72.592 103.999L75.2779 102.446C75.2869 102.296 75.2578 102.146 75.1932 102.01C75.1287 101.875 75.0308 101.757 74.9088 101.67C74.8116 101.614 74.7023 101.584 74.5905 101.58L74.5842 101.587Z" fill="white"/>
<path d="M77.8905 103.821C77.8584 103.821 77.8276 103.808 77.805 103.786C77.7823 103.763 77.7695 103.732 77.7695 103.7V99.6392C77.7695 99.6072 77.7823 99.5764 77.805 99.5537C77.8276 99.5311 77.8584 99.5183 77.8905 99.5183C77.9225 99.5183 77.9533 99.5311 77.976 99.5537C77.9986 99.5764 78.0114 99.6072 78.0114 99.6392V103.7C78.0114 103.732 77.9986 103.763 77.976 103.786C77.9533 103.808 77.9225 103.821 77.8905 103.821Z" fill="white"/>
<path d="M77.5436 100.6H77.499C77.4846 100.595 77.4715 100.586 77.4604 100.576C77.4493 100.565 77.4405 100.552 77.4346 100.538C77.4286 100.523 77.4257 100.508 77.4258 100.492C77.4259 100.477 77.4292 100.462 77.4354 100.448L77.8618 99.4674L78.3328 100.015C78.3531 100.038 78.3631 100.069 78.3607 100.1C78.3583 100.131 78.3437 100.16 78.3201 100.18C78.3084 100.19 78.2948 100.198 78.2802 100.203C78.2655 100.207 78.2501 100.209 78.2347 100.208C78.2037 100.206 78.1749 100.191 78.1546 100.168L77.9255 99.9066L77.6518 100.543C77.641 100.562 77.6251 100.577 77.606 100.587C77.5868 100.598 77.5652 100.602 77.5436 100.6Z" fill="white"/>
<path d="M78.9918 103.191C78.9608 103.191 78.9309 103.179 78.9084 103.158C78.8859 103.136 78.8725 103.107 78.8708 103.076V99.0155C78.8708 98.9834 78.8836 98.9527 78.9063 98.93C78.9289 98.9073 78.9597 98.8946 78.9918 98.8946C79.0079 98.8937 79.024 98.8962 79.0391 98.9019C79.0542 98.9077 79.0679 98.9165 79.0793 98.928C79.0908 98.9394 79.0996 98.9531 79.1054 98.9682C79.1111 98.9833 79.1136 98.9994 79.1127 99.0155V103.076C79.1127 103.092 79.1096 103.107 79.1034 103.122C79.0973 103.136 79.0883 103.149 79.0769 103.16C79.0656 103.17 79.0522 103.179 79.0376 103.184C79.0229 103.189 79.0074 103.192 78.9918 103.191Z" fill="white"/>
<path d="M78.6412 99.9639C78.6269 99.9692 78.611 99.9692 78.5967 99.9639C78.5823 99.9583 78.5691 99.9499 78.558 99.9391C78.547 99.9283 78.5382 99.9154 78.5323 99.9011C78.5263 99.8868 78.5233 99.8715 78.5234 99.856C78.5236 99.8406 78.5268 99.8253 78.533 99.8111L78.9595 98.8309L79.4305 99.3783C79.4515 99.4007 79.4632 99.4303 79.4632 99.4611C79.4632 99.4918 79.4515 99.5214 79.4305 99.5438C79.4192 99.5551 79.4058 99.5642 79.3911 99.5703C79.3764 99.5765 79.3605 99.5796 79.3445 99.5796C79.3286 99.5796 79.3127 99.5765 79.298 99.5703C79.2833 99.5642 79.2699 99.5551 79.2586 99.5438L79.0359 99.2828L78.7622 99.9193C78.7483 99.9374 78.7295 99.9512 78.7081 99.959C78.6867 99.9669 78.6635 99.9686 78.6412 99.9639Z" fill="white"/>
<path d="M66.0989 113.037L53.1719 105.578V75.7202L66.0989 83.1862V113.037Z" fill="#E0E0E0"/>
<path d="M59.1797 83.4281L60.93 84.4401V80.2011L59.1797 79.1891V83.4281Z" fill="#F5F5F5"/>
<path d="M60.93 80.2011L79.0316 69.75L77.2749 68.738L59.1797 79.1891L60.93 80.2011Z" fill="white"/>
<path d="M60.9278 98.1117L37.6644 84.6819L14.3945 98.1117L37.6644 111.548L60.9278 98.1117Z" fill="#F5F5F5"/>
<path d="M37.6641 129.459L60.9275 116.029V98.1117L37.6641 111.548V129.459Z" fill="#EBEBEB"/>
<path d="M40.6493 123.514C40.5688 123.512 40.49 123.49 40.4202 123.45C40.3207 123.378 40.2415 123.282 40.1902 123.17C40.1389 123.059 40.1173 122.936 40.1274 122.814V120.904V120.764H40.2229L41.7123 119.886V122.012C41.7081 122.283 41.6397 122.55 41.5124 122.79C41.3852 123.03 41.2028 123.237 40.9803 123.393C40.8824 123.461 40.7683 123.503 40.6493 123.514ZM40.3629 121.051V122.807C40.3516 122.888 40.3615 122.97 40.3916 123.046C40.4217 123.122 40.4711 123.189 40.5348 123.24C40.5869 123.264 40.6444 123.273 40.7014 123.268C40.7584 123.262 40.8129 123.242 40.8594 123.208C41.0493 123.074 41.2056 122.899 41.316 122.694C41.4265 122.49 41.488 122.263 41.4959 122.031V121.872H40.923L40.8148 121.127L40.3629 121.051ZM41.1267 121.636H41.4959V120.331L40.6112 120.853L41.0503 120.93L41.1267 121.636Z" fill="white"/>
<path d="M40.9185 125.029C40.9035 125.029 40.8886 125.026 40.8747 125.02C40.8608 125.014 40.8482 125.006 40.8375 124.995C40.8269 124.984 40.8184 124.972 40.8127 124.958C40.8069 124.944 40.804 124.929 40.804 124.914V123.316C40.7998 123.299 40.7997 123.28 40.8037 123.262C40.8077 123.245 40.8156 123.228 40.827 123.214C40.8383 123.199 40.8527 123.188 40.8691 123.18C40.8855 123.172 40.9035 123.168 40.9217 123.168C40.9399 123.168 40.9579 123.172 40.9743 123.18C40.9907 123.188 41.0051 123.199 41.0165 123.214C41.0278 123.228 41.0357 123.245 41.0397 123.262C41.0437 123.28 41.0436 123.299 41.0395 123.316V124.914C41.0395 124.93 41.0363 124.945 41.0302 124.959C41.024 124.974 41.015 124.987 41.0037 124.997C40.9924 125.008 40.979 125.016 40.9643 125.022C40.9497 125.027 40.9341 125.029 40.9185 125.029Z" fill="white"/>
<path d="M40.2227 125.423C40.1973 125.422 40.1729 125.412 40.1532 125.396C40.1336 125.38 40.1195 125.357 40.1132 125.333C40.1068 125.308 40.1085 125.282 40.1178 125.258C40.1272 125.234 40.1439 125.214 40.1655 125.201L41.553 124.405C41.5656 124.396 41.58 124.39 41.5953 124.387C41.6105 124.384 41.6262 124.384 41.6413 124.388C41.6564 124.391 41.6705 124.398 41.6827 124.408C41.695 124.417 41.705 124.429 41.7121 124.443C41.7213 124.456 41.7275 124.471 41.7306 124.487C41.7336 124.503 41.7333 124.519 41.7297 124.534C41.7261 124.55 41.7193 124.565 41.7097 124.577C41.7001 124.59 41.6879 124.601 41.6739 124.609L40.2864 125.423H40.2227Z" fill="white"/>
<path d="M45.1612 122.686C45.1193 122.696 45.0758 122.696 45.0339 122.686C44.9853 122.655 44.946 122.612 44.9202 122.56C44.8944 122.509 44.8831 122.451 44.8875 122.394V122.069C44.8875 122.037 44.9003 122.006 44.9229 121.983C44.9456 121.961 44.9764 121.948 45.0085 121.948C45.0405 121.948 45.0713 121.961 45.094 121.983C45.1167 122.006 45.1294 122.037 45.1294 122.069V122.394C45.1206 122.42 45.1206 122.449 45.1294 122.476C45.1294 122.476 45.1676 122.476 45.2121 122.476C45.2839 122.406 45.3403 122.322 45.3776 122.229C45.4148 122.135 45.4322 122.036 45.4285 121.935V119.816C45.4301 119.784 45.4433 119.754 45.4657 119.732C45.488 119.71 45.5179 119.696 45.5495 119.695C45.5815 119.695 45.6123 119.708 45.635 119.73C45.6577 119.753 45.6704 119.784 45.6704 119.816V121.935C45.6756 122.077 45.6479 122.218 45.5894 122.347C45.5308 122.477 45.4431 122.59 45.3331 122.68C45.2771 122.696 45.2182 122.698 45.1612 122.686Z" fill="white"/>
<path d="M43.9064 120.834V120.624C43.934 120.094 44.0869 119.579 44.3524 119.12C44.618 118.66 44.9886 118.271 45.434 117.983C45.592 117.848 45.7881 117.765 45.9952 117.746C46.2023 117.727 46.4102 117.772 46.5903 117.876C46.7704 117.98 46.9139 118.138 47.0009 118.326C47.0878 118.515 47.1141 118.727 47.0761 118.931V119.001L43.9064 120.834ZM46.1468 118.002C45.9351 118.013 45.7295 118.076 45.5485 118.186C45.171 118.437 44.8513 118.765 44.6109 119.15C44.3705 119.534 44.215 119.965 44.1546 120.414L46.8342 118.861C46.8445 118.711 46.8166 118.562 46.7531 118.426C46.6897 118.29 46.5927 118.173 46.4714 118.085C46.3726 118.028 46.2605 118 46.1468 118.002Z" fill="white"/>
<path d="M49.4522 120.242C49.4361 120.243 49.42 120.241 49.4049 120.235C49.3898 120.229 49.3761 120.22 49.3647 120.209C49.3533 120.198 49.3444 120.184 49.3386 120.169C49.3329 120.154 49.3304 120.137 49.3313 120.121V116.061C49.3272 116.043 49.3271 116.024 49.331 116.007C49.335 115.989 49.343 115.972 49.3543 115.958C49.3656 115.944 49.38 115.932 49.3964 115.924C49.4128 115.916 49.4308 115.912 49.4491 115.912C49.4673 115.912 49.4853 115.916 49.5017 115.924C49.5181 115.932 49.5325 115.944 49.5438 115.958C49.5551 115.972 49.5631 115.989 49.5671 116.007C49.5711 116.024 49.571 116.043 49.5668 116.061V120.121C49.5677 120.137 49.5654 120.153 49.56 120.167C49.5546 120.182 49.5463 120.195 49.5356 120.207C49.5249 120.218 49.5119 120.227 49.4976 120.233C49.4833 120.239 49.4678 120.242 49.4522 120.242Z" fill="white"/>
<path d="M49.1331 116.99H49.0822C49.0675 116.984 49.0543 116.975 49.0433 116.963C49.0323 116.951 49.0239 116.938 49.0185 116.923C49.0131 116.908 49.0109 116.892 49.012 116.876C49.0131 116.86 49.0175 116.845 49.0249 116.831L49.445 115.85L49.9224 116.398C49.9435 116.422 49.954 116.454 49.9516 116.486C49.9492 116.519 49.9341 116.549 49.9096 116.57C49.8851 116.591 49.8533 116.601 49.8211 116.599C49.7888 116.597 49.7589 116.581 49.7378 116.557L49.515 116.296L49.2413 116.932C49.23 116.951 49.214 116.966 49.195 116.976C49.176 116.986 49.1546 116.991 49.1331 116.99Z" fill="white"/>
<path d="M50.5545 119.612C50.5225 119.612 50.4917 119.599 50.469 119.577C50.4463 119.554 50.4336 119.523 50.4336 119.491V115.43C50.4336 115.398 50.4463 115.368 50.469 115.345C50.4917 115.322 50.5225 115.309 50.5545 115.309C50.5866 115.309 50.6174 115.322 50.64 115.345C50.6627 115.368 50.6755 115.398 50.6755 115.43V119.491C50.6755 119.523 50.6627 119.554 50.64 119.577C50.6174 119.599 50.5866 119.612 50.5545 119.612Z" fill="white"/>
<path d="M50.2037 116.36H50.1592C50.1448 116.354 50.1316 116.346 50.1205 116.335C50.1095 116.324 50.1007 116.311 50.0948 116.297C50.0888 116.283 50.0858 116.267 50.0859 116.252C50.0861 116.236 50.0893 116.221 50.0955 116.207L50.522 115.22L50.993 115.768C51.0043 115.779 51.0133 115.792 51.0195 115.807C51.0256 115.822 51.0288 115.838 51.0288 115.854C51.0288 115.87 51.0256 115.885 51.0195 115.9C51.0133 115.915 51.0043 115.928 50.993 115.94C50.9823 115.951 50.9694 115.96 50.9552 115.966C50.941 115.972 50.9257 115.975 50.9102 115.975C50.8948 115.975 50.8795 115.972 50.8652 115.966C50.851 115.96 50.8382 115.951 50.8275 115.94L50.5984 115.679L50.3247 116.315C50.3113 116.334 50.2926 116.348 50.2711 116.356C50.2495 116.364 50.226 116.365 50.2037 116.36Z" fill="white"/>
<path d="M37.6644 129.459L14.3945 116.029V98.1117L37.6644 111.548V129.459Z" fill="#E0E0E0"/>
<path d="M25.1523 108.563L26.9027 109.575V105.336L25.1523 104.324V108.563Z" fill="#F5F5F5"/>
<path d="M26.9027 105.336L50.1725 91.9059L48.4222 90.8876L25.1523 104.324L26.9027 105.336Z" fill="white"/>
<path d="M18.0816 109.199L23.6317 112.382C23.9528 112.591 24.2203 112.873 24.4126 113.205C24.605 113.536 24.7168 113.908 24.7392 114.291V117.722C24.7392 118.422 24.2427 118.708 23.6317 118.358L18.0816 115.176C17.7606 114.967 17.4936 114.685 17.3022 114.353C17.1109 114.021 17.0006 113.649 16.9805 113.266V109.842C16.9805 109.129 17.4769 108.875 18.0816 109.199Z" fill="#F5F5F5"/>
<path d="M17.6523 110.052L17.8624 110.173V113.979L17.6523 113.858V110.052Z" fill="#E0E0E0"/>
<path d="M18.5078 110.549L18.877 110.765V114.565L18.5078 114.355V110.549Z" fill="#E0E0E0"/>
<path d="M19.3672 111.045L19.5836 111.166L19.5772 114.972L19.3672 114.851V111.045Z" fill="#E0E0E0"/>
<path d="M20.0156 111.414L20.4421 111.662L20.4357 115.469L20.0156 115.214V111.414Z" fill="#E0E0E0"/>
<path d="M21.0819 112.038L21.2919 112.159V115.965L21.0819 115.838V112.038Z" fill="#E0E0E0"/>
<path d="M21.7031 112.388L22.155 112.655V116.455L21.7031 116.188V112.388Z" fill="#E0E0E0"/>
<path d="M22.8047 113.031L23.0147 113.152V116.952L22.8047 116.831V113.031Z" fill="#E0E0E0"/>
<path d="M23.293 113.304L23.4012 113.368V117.168L23.293 117.111V113.304Z" fill="#E0E0E0"/>
<path d="M22.4143 112.821L22.5161 112.878V116.684L22.4143 116.627V112.821Z" fill="#E0E0E0"/>
<path d="M20.6836 111.809L20.7854 111.866V115.672L20.6836 115.609V111.809Z" fill="#E0E0E0"/>
<path d="M19.7383 111.261L19.8465 111.325V115.125L19.7383 115.068V111.261Z" fill="#E0E0E0"/>
<path d="M19.0547 110.886L19.1629 110.95V114.756L19.0547 114.692V110.886Z" fill="#E0E0E0"/>
<path d="M18.1289 110.326L18.2371 110.39V114.189L18.1289 114.132V110.326Z" fill="#E0E0E0"/>
<path d="M23.6602 113.521L23.8702 113.648V117.448L23.6602 117.327V113.521Z" fill="#E0E0E0"/>
<path d="M55.7593 62.2904L37.6641 51.8394L19.5625 62.2904L37.6641 72.7351L55.7593 62.2904Z" fill="#F5F5F5"/>
<path d="M37.6641 108.563L55.7593 98.1117V62.2904L37.6641 72.7351V108.563Z" fill="#EBEBEB"/>
<path d="M40.6493 102.618C40.5693 102.619 40.4905 102.599 40.4202 102.561C40.3207 102.489 40.2415 102.392 40.1902 102.281C40.1389 102.169 40.1173 102.047 40.1274 101.924V100.015V99.8748H40.2229L41.7123 99.0028V101.122C41.7086 101.395 41.6404 101.663 41.5132 101.904C41.3859 102.145 41.2033 102.353 40.9803 102.51C40.8814 102.574 40.7672 102.612 40.6493 102.618ZM40.3629 100.155V101.918C40.3528 101.999 40.3633 102.081 40.3933 102.156C40.4234 102.232 40.472 102.299 40.5348 102.351C40.5869 102.375 40.6444 102.384 40.7014 102.379C40.7584 102.373 40.8129 102.352 40.8594 102.319C41.0494 102.184 41.2057 102.007 41.3161 101.801C41.4265 101.596 41.488 101.368 41.4959 101.135V100.982H40.923L40.8148 100.238L40.3629 100.155ZM41.1267 100.74H41.4959V99.4356L40.6112 99.9575L41.0503 100.034L41.1267 100.74Z" fill="white"/>
<path d="M40.9155 104.133C40.8999 104.133 40.8845 104.13 40.8702 104.124C40.8558 104.117 40.8429 104.108 40.8322 104.097C40.8215 104.086 40.8131 104.072 40.8078 104.058C40.8024 104.043 40.8001 104.027 40.801 104.012V102.421C40.8001 102.405 40.8024 102.39 40.8078 102.375C40.8131 102.36 40.8215 102.347 40.8322 102.336C40.8429 102.324 40.8558 102.315 40.8702 102.309C40.8845 102.303 40.8999 102.3 40.9155 102.3C40.9316 102.299 40.9478 102.301 40.9629 102.307C40.978 102.313 40.9917 102.322 41.0031 102.333C41.0145 102.345 41.0234 102.358 41.0291 102.373C41.0349 102.388 41.0374 102.405 41.0365 102.421V104.012C41.0374 104.028 41.0349 104.044 41.0291 104.059C41.0234 104.074 41.0145 104.088 41.0031 104.099C40.9917 104.111 40.978 104.12 40.9629 104.126C40.9478 104.131 40.9316 104.134 40.9155 104.133Z" fill="white"/>
<path d="M40.2227 104.534C40.1973 104.532 40.1729 104.523 40.1532 104.506C40.1336 104.49 40.1195 104.468 40.1132 104.443C40.1068 104.419 40.1085 104.392 40.1178 104.369C40.1272 104.345 40.1439 104.325 40.1655 104.311L41.553 103.509C41.5808 103.493 41.6139 103.489 41.645 103.497C41.676 103.505 41.7024 103.526 41.7185 103.554C41.7345 103.581 41.7388 103.615 41.7305 103.646C41.7221 103.677 41.7018 103.703 41.6739 103.719L40.2864 104.515C40.2677 104.528 40.2454 104.534 40.2227 104.534Z" fill="white"/>
<path d="M45.1613 101.791C45.116 101.791 45.0717 101.777 45.034 101.752C44.9854 101.723 44.9459 101.681 44.9201 101.63C44.8942 101.579 44.883 101.523 44.8876 101.466V101.141C44.8876 101.109 44.9004 101.079 44.923 101.056C44.9457 101.033 44.9765 101.02 45.0085 101.02C45.0406 101.02 45.0714 101.033 45.0941 101.056C45.1167 101.079 45.1295 101.109 45.1295 101.141V101.466C45.1207 101.493 45.1207 101.522 45.1295 101.549C45.1565 101.556 45.1852 101.556 45.2122 101.549C45.2849 101.481 45.3419 101.397 45.3792 101.305C45.4166 101.213 45.4334 101.114 45.4286 101.014V98.8946C45.4286 98.8625 45.4414 98.8317 45.4641 98.809C45.4867 98.7864 45.5175 98.7736 45.5496 98.7736C45.5657 98.7727 45.5818 98.7752 45.5969 98.7809C45.612 98.7867 45.6257 98.7956 45.6371 98.807C45.6485 98.8184 45.6574 98.8321 45.6632 98.8472C45.6689 98.8623 45.6714 98.8784 45.6705 98.8946V101.014C45.6757 101.156 45.648 101.297 45.5895 101.426C45.5309 101.555 45.4432 101.669 45.3332 101.759C45.2792 101.783 45.2203 101.794 45.1613 101.791Z" fill="white"/>
<path d="M43.9064 99.9638V99.7602C43.9351 99.2298 44.0883 98.7137 44.3537 98.2537C44.6191 97.7937 44.9892 97.4027 45.434 97.1124C45.5935 96.9803 45.7896 96.9004 45.996 96.8833C46.2024 96.8663 46.409 96.9129 46.588 97.017C46.767 97.1211 46.9098 97.2776 46.9971 97.4654C47.0844 97.6531 47.1119 97.8632 47.0761 98.0671V98.1308L43.9064 99.9638ZM46.1468 97.1379C45.9351 97.1486 45.7295 97.2121 45.5485 97.3224C45.1717 97.5724 44.8525 97.8998 44.6121 98.2828C44.3718 98.6659 44.2158 99.0957 44.1546 99.5438L46.8342 97.9971C46.8457 97.8474 46.8184 97.6972 46.7548 97.5612C46.6913 97.4252 46.5936 97.3078 46.4714 97.2206C46.3758 97.1533 46.2635 97.1137 46.1468 97.106V97.1379Z" fill="white"/>
<path d="M49.4522 99.3274C49.4202 99.3274 49.3894 99.3146 49.3667 99.292C49.344 99.2693 49.3313 99.2385 49.3313 99.2064V95.1457C49.3272 95.1279 49.3271 95.1095 49.331 95.0917C49.335 95.0739 49.343 95.0573 49.3543 95.043C49.3656 95.0287 49.38 95.0172 49.3964 95.0092C49.4128 95.0013 49.4308 94.9972 49.4491 94.9972C49.4673 94.9972 49.4853 95.0013 49.5017 95.0092C49.5181 95.0172 49.5325 95.0287 49.5438 95.043C49.5551 95.0573 49.5631 95.0739 49.5671 95.0917C49.5711 95.1095 49.571 95.1279 49.5668 95.1457V99.2064C49.5668 99.2374 49.555 99.2673 49.5337 99.2898C49.5123 99.3123 49.4832 99.3257 49.4522 99.3274Z" fill="white"/>
<path d="M49.1331 96.0877H49.0822C49.0675 96.0816 49.0543 96.0724 49.0433 96.0609C49.0323 96.0494 49.0239 96.0357 49.0185 96.0207C49.0131 96.0058 49.0109 95.9898 49.012 95.974C49.0131 95.9581 49.0175 95.9426 49.0249 95.9286L49.445 94.9484L49.9224 95.4957C49.9434 95.5182 49.9551 95.5477 49.9551 95.5785C49.9551 95.6092 49.9434 95.6388 49.9224 95.6612C49.8989 95.6827 49.8682 95.6946 49.8364 95.6946C49.8046 95.6946 49.774 95.6827 49.7505 95.6612L49.5277 95.4003L49.254 96.0368C49.2415 96.0566 49.2232 96.0721 49.2016 96.0812C49.18 96.0903 49.1561 96.0926 49.1331 96.0877Z" fill="white"/>
<path d="M50.5545 98.6909C50.523 98.6894 50.4931 98.6762 50.4707 98.6538C50.4484 98.6314 50.4351 98.6016 50.4336 98.57V94.5092C50.4336 94.4772 50.4463 94.4464 50.469 94.4237C50.4917 94.401 50.5225 94.3883 50.5545 94.3883C50.5866 94.3883 50.6174 94.401 50.64 94.4237C50.6627 94.4464 50.6755 94.4772 50.6755 94.5092V98.57C50.6739 98.6016 50.6607 98.6314 50.6383 98.6538C50.616 98.6762 50.5861 98.6894 50.5545 98.6909Z" fill="white"/>
<path d="M50.204 95.464H50.1595C50.1448 95.4578 50.1315 95.4487 50.1204 95.4373C50.1093 95.4259 50.1005 95.4125 50.0946 95.3977C50.0887 95.3829 50.0857 95.3671 50.0859 95.3512C50.0862 95.3352 50.0895 95.3195 50.0958 95.3049L50.5223 94.3247L50.9933 94.8721C51.0046 94.8833 51.0136 94.8967 51.0198 94.9115C51.0259 94.9262 51.0291 94.942 51.0291 94.958C51.0291 94.974 51.0259 94.9898 51.0198 95.0046C51.0136 95.0193 51.0046 95.0327 50.9933 95.0439C50.9702 95.0637 50.9409 95.0745 50.9105 95.0745C50.8802 95.0745 50.8508 95.0637 50.8278 95.0439L50.5986 94.783L50.3249 95.4195C50.311 95.4375 50.2923 95.4513 50.2709 95.4592C50.2495 95.4671 50.2263 95.4687 50.204 95.464Z" fill="white"/>
<path d="M37.6641 108.563L19.5625 98.1117V62.2904L37.6641 72.7351V108.563Z" fill="#E0E0E0"/>
<path d="M28.1484 71.4813L29.9051 72.4933V68.2607L28.1484 67.2423V71.4813Z" fill="#F5F5F5"/>
<path d="M29.9051 68.2607L48.0004 57.8096L46.25 56.7976L28.1484 67.2423L29.9051 68.2607Z" fill="white"/>
<path d="M23.2442 91.2822L28.7943 94.4646C29.1157 94.6733 29.383 94.9551 29.5744 95.287C29.7658 95.6189 29.8758 95.9915 29.8955 96.3741V99.7984C29.8955 100.499 29.4054 100.785 28.7943 100.435L23.2442 97.2524C22.922 97.0441 22.6538 96.7625 22.4613 96.4306C22.2688 96.0988 22.1576 95.7261 22.1367 95.343V91.9187C22.1431 91.2186 22.6332 90.9322 23.2442 91.2822Z" fill="#F5F5F5"/>
<path d="M22.8164 92.1415L23.0264 92.2624V96.0686L22.8164 95.9413V92.1415Z" fill="#E0E0E0"/>
<path d="M23.6758 92.6379L24.0386 92.848V96.6541L23.6758 96.4377V92.6379Z" fill="#E0E0E0"/>
<path d="M24.5312 93.1281L24.7413 93.2554V97.0552L24.5312 96.9342V93.1281Z" fill="#E0E0E0"/>
<path d="M25.1797 93.4972L25.5998 93.7518V97.5516L25.1797 97.3034V93.4972Z" fill="#E0E0E0"/>
<path d="M26.2539 94.121L26.4639 94.2419V98.0481L26.2539 97.9271V94.121Z" fill="#E0E0E0"/>
<path d="M26.8711 94.4709L27.323 94.7383V98.5444L26.8711 98.2771V94.4709Z" fill="#E0E0E0"/>
<path d="M27.9687 95.1139L28.1788 95.2348V99.041L27.9687 98.9137V95.1139Z" fill="#E0E0E0"/>
<path d="M28.4609 95.3939L28.5628 95.4512V99.2574L28.4609 99.1937V95.3939Z" fill="#E0E0E0"/>
<path d="M27.5783 94.9038L27.6865 94.9675V98.7736L27.5783 98.71V94.9038Z" fill="#E0E0E0"/>
<path d="M25.8477 93.8918L25.9559 93.9555V97.7553L25.8477 97.698V93.8918Z" fill="#E0E0E0"/>
<path d="M24.8984 93.3508L25.0066 93.4081V97.2143L24.8984 97.1506V93.3508Z" fill="#E0E0E0"/>
<path d="M24.2227 92.9753L24.3245 93.0326V96.8388L24.2227 96.7751V92.9753Z" fill="#E0E0E0"/>
<path d="M23.3008 92.4152L23.4026 92.4724V96.2786L23.3008 96.215V92.4152Z" fill="#E0E0E0"/>
<path d="M28.8203 95.6104L29.0367 95.7313V99.5311L28.8203 99.4102V95.6104Z" fill="#E0E0E0"/>
<path d="M19.7346 160.907L89.2005 201.006C90.0545 201.439 90.9987 201.665 91.9564 201.665C92.9141 201.665 93.8583 201.439 94.7124 201.006L246.915 113.171C248.436 112.293 248.436 110.867 246.915 109.989L177.449 69.8901C176.596 69.4538 175.651 69.2263 174.693 69.2263C173.735 69.2263 172.79 69.4538 171.937 69.8901L19.7346 157.725C18.2135 158.603 18.2135 160.029 19.7346 160.907Z" fill="#455A64"/>
<path d="M57.2849 179.524C58.4693 180.122 59.7773 180.433 61.1038 180.433C62.4304 180.433 63.7384 180.122 64.9227 179.524C67.0422 178.302 67.0422 176.342 64.9227 175.101C63.7393 174.5 62.4309 174.187 61.1038 174.187C59.7768 174.187 58.4684 174.5 57.2849 175.101C55.1654 176.342 55.1654 178.315 57.2849 179.524Z" fill="#263238"/>
<path d="M90.5069 201.006L21.0411 160.907C19.6791 160.118 19.539 158.896 20.6147 158.018C19.9353 158.555 19.3767 159.23 18.9753 159.997C18.5739 160.765 18.3388 161.608 18.2852 162.473V165.064C18.3374 166.02 18.6141 166.95 19.0929 167.78C19.5718 168.609 20.2392 169.314 21.0411 169.837L90.5069 209.936C91.3563 210.379 92.305 210.598 93.2629 210.572V201.668C92.3028 201.686 91.354 201.458 90.5069 201.006Z" fill="#37474F"/>
<path d="M246.909 122.095C247.713 121.573 248.382 120.868 248.862 120.039C249.342 119.209 249.619 118.278 249.671 117.321V114.73C249.62 113.865 249.385 113.02 248.982 112.252C248.579 111.484 248.018 110.81 247.335 110.275C248.417 111.153 248.277 112.375 246.915 113.158L94.713 201.006C93.863 201.448 92.9148 201.667 91.957 201.642V210.598C92.9148 210.622 93.863 210.403 94.713 209.961L246.909 122.095Z" fill="#263238"/>
<path d="M100.647 192.7L34.1601 154.294C33.2435 153.766 33.2435 152.907 34.1601 152.385L162.679 78.1645C163.192 77.904 163.759 77.7682 164.334 77.7682C164.909 77.7682 165.476 77.904 165.989 78.1645L232.501 116.564C233.411 117.092 233.411 117.945 232.501 118.473L103.931 192.7C103.422 192.956 102.86 193.09 102.289 193.09C101.719 193.09 101.157 192.956 100.647 192.7Z" fill="white"/>
<path d="M73.8537 171.256L81.6124 166.776L79.0283 165.286L71.2695 169.761L73.8537 171.256Z" fill="#EC994B"/>
<path d="M166.936 117.518L174.694 113.037L172.104 111.548L164.352 116.029L166.936 117.518Z" fill="#EC994B"/>
<path d="M182.447 108.563L190.206 104.082L187.622 102.593L179.863 107.067L182.447 108.563Z" fill="#EC994B"/>
<path d="M207.346 92.8736C207.647 93.0243 207.979 93.1027 208.316 93.1027C208.653 93.1027 208.986 93.0243 209.287 92.8736C209.404 92.8337 209.505 92.7582 209.577 92.6578C209.649 92.5573 209.688 92.437 209.688 92.3135C209.688 92.19 209.649 92.0697 209.577 91.9692C209.505 91.8688 209.404 91.7933 209.287 91.7534C208.987 91.5998 208.654 91.5197 208.316 91.5197C207.979 91.5197 207.646 91.5998 207.346 91.7534C207.229 91.7933 207.128 91.8688 207.056 91.9692C206.984 92.0697 206.945 92.19 206.945 92.3135C206.945 92.437 206.984 92.5573 207.056 92.6578C207.128 92.7582 207.229 92.8337 207.346 92.8736Z" fill="#263238"/>
<path d="M210.447 101.663C211.047 101.968 211.711 102.126 212.385 102.126C213.058 102.126 213.722 101.968 214.323 101.663C215.392 101.027 215.392 100.04 214.323 99.423C213.722 99.1187 213.058 98.9602 212.385 98.9602C211.711 98.9602 211.047 99.1187 210.447 99.423C209.377 100.04 209.377 101.046 210.447 101.663Z" fill="#263238"/>
<path d="M207.708 97.7681C208.42 97.3544 208.382 96.667 207.625 96.2278L194.895 88.8637C194.485 88.644 194.029 88.5249 193.565 88.516C193.1 88.5072 192.64 88.6089 192.222 88.8128C191.509 89.2265 191.547 89.9139 192.305 90.353L205.072 97.7172C205.477 97.9301 205.927 98.0455 206.384 98.0544C206.841 98.0632 207.295 97.9652 207.708 97.7681Z" fill="#263238"/>
<path d="M185.978 67.9043L186.41 67.6497C186.111 68.7358 185.966 69.8584 185.978 70.9848V72.5379C185.978 78.1134 192.667 92.3579 195.13 97.3989C195.385 97.9272 192.005 101.523 192.005 101.523L196.021 99.2065C196.021 99.2065 206.059 90.9322 206.059 84.1346V82.5816C206.059 75.7521 201.565 67.6242 196.021 64.4227C193.221 62.8124 190.694 62.7551 188.874 63.9772L185.055 66.1666L185.978 67.9043ZM190.999 73.1171C190.999 69.9346 193.246 68.6171 196.021 70.2211C195.792 72.2769 199.547 78.6799 201.037 78.9154C201.037 82.0978 198.79 83.4153 196.021 81.8114C194.564 80.8567 193.352 79.5719 192.484 78.0614C191.616 76.5508 191.116 74.8569 191.025 73.1171H190.999Z" fill="#EC994B"/>
<path d="M181.85 75.0266C181.964 81.8497 192.326 101.523 192.326 101.523C192.326 101.523 202.23 93.109 202.122 86.2859V84.7329C202.007 77.9098 197.38 69.8519 191.779 66.7459C186.178 63.6399 181.735 66.6441 181.85 73.4735V75.0266ZM186.878 75.523C186.827 72.3406 189.055 70.9849 191.849 72.5379C193.326 73.4664 194.563 74.7301 195.46 76.2263C196.357 77.7226 196.888 79.4093 197.011 81.1495C197.068 84.3319 194.84 85.6876 192.04 84.1346C190.565 83.2042 189.329 81.9401 188.432 80.4442C187.536 78.9483 187.003 77.2626 186.878 75.523Z" fill="#EC994B"/>
<path opacity="0.1" d="M181.85 75.0266C181.964 81.8497 192.326 101.523 192.326 101.523C192.326 101.523 202.23 93.109 202.122 86.2859V84.7329C202.007 77.9098 197.38 69.8519 191.779 66.7459C186.178 63.6399 181.735 66.6441 181.85 73.4735V75.0266ZM186.878 75.523C186.827 72.3406 189.055 70.9849 191.849 72.5379C193.326 73.4664 194.563 74.7301 195.46 76.2263C196.357 77.7226 196.888 79.4093 197.011 81.1495C197.068 84.3319 194.84 85.6876 192.04 84.1346C190.565 83.2042 189.329 81.9401 188.432 80.4442C187.536 78.9483 187.003 77.2626 186.878 75.523Z" fill="black"/>
<path d="M84.78 166.025C91.2148 169.729 106.299 167.037 118.475 160.003L151.923 140.699C164.099 133.666 168.745 124.971 162.297 121.273C155.85 117.575 140.752 120.28 128.564 127.307L95.1801 146.586C83.0106 153.613 78.3515 162.339 84.78 166.025Z" fill="#F0F0F0"/>
<path d="M182.166 4.186H182.198L187.704 1.00358H187.748C191.217 -0.753113 195.851 -0.269381 200.841 2.97668C210.872 9.43063 218.529 24.3243 217.949 36.2329C217.657 42.1713 215.403 46.2448 211.922 48.0397H211.89L206.378 51.2221H206.34C202.871 52.9852 198.231 52.4951 193.235 49.2554C183.21 42.7951 175.553 27.9077 176.132 15.9991C176.438 10.0544 178.723 5.98088 182.166 4.186Z" fill="#37474F"/>
<path d="M206.656 51.0566L211.907 48.0015H211.945C215.395 46.2002 217.674 42.1267 217.967 36.1947C218.221 30.8864 216.84 24.9862 214.345 19.5061L208.833 22.6885C211.334 28.1686 212.716 34.0688 212.455 39.3835C212.181 45.1755 209.991 49.2044 206.656 51.0566Z" fill="#263238"/>
<path d="M193.262 49.2491C183.237 42.7887 175.581 27.9014 176.16 15.9928C176.739 4.08418 185.351 -0.33938 195.356 6.11456C205.362 12.5685 213.044 27.4622 212.465 39.3708C211.886 51.2794 203.287 55.703 193.262 49.2491Z" fill="#455A64"/>
<path d="M201.66 48.4088C207.573 48.6953 208.534 42.044 208.662 39.1798C209.171 28.6779 202.131 14.9935 193.291 9.29694C191.407 7.97743 189.215 7.16629 186.926 6.94195C181.019 6.65553 180.058 13.3068 179.924 16.171C179.415 26.6729 186.448 40.3573 195.296 46.0857C197.179 47.4052 199.371 48.2163 201.66 48.4407V48.4088Z" fill="#FAFAFA"/>
<path d="M193.149 29.6517C193.219 29.6519 193.288 29.6389 193.352 29.6135C193.485 29.5703 193.6 29.4846 193.68 29.3696C193.759 29.2545 193.798 29.1166 193.792 28.977V13.8096C193.792 13.6408 193.725 13.4789 193.605 13.3595C193.486 13.2402 193.324 13.1731 193.155 13.1731C192.986 13.1731 192.824 13.2402 192.705 13.3595C192.586 13.4789 192.519 13.6408 192.519 13.8096V27.1312L185.435 18.0295C185.33 17.8944 185.176 17.8065 185.006 17.785C184.837 17.7635 184.666 17.8102 184.531 17.9149C184.396 18.0196 184.308 18.1736 184.286 18.3431C184.265 18.5126 184.312 18.6837 184.416 18.8187L192.659 29.4034C192.717 29.4788 192.791 29.5402 192.876 29.5831C192.96 29.6261 193.054 29.6495 193.149 29.6517Z" fill="#37474F"/>
<path d="M196.804 40.8729C196.833 40.8787 196.864 40.8787 196.893 40.8729C196.961 40.8522 197.018 40.8062 197.052 40.7445C197.086 40.6829 197.096 40.6103 197.078 40.5419L193.507 28.5188C193.487 28.4504 193.44 28.3929 193.378 28.3589C193.315 28.3248 193.241 28.3171 193.173 28.3374C193.105 28.3576 193.047 28.4042 193.013 28.4669C192.979 28.5295 192.971 28.6032 192.992 28.6715L196.556 40.6947C196.574 40.7462 196.608 40.7909 196.652 40.8228C196.696 40.8546 196.749 40.8721 196.804 40.8729Z" fill="#EC994B"/>
<path d="M193.357 25.9664C192.173 25.209 191.161 25.7309 191.098 27.1312C191.102 27.8949 191.286 28.647 191.635 29.3261C191.985 30.0052 192.49 30.5922 193.109 31.0392C194.286 31.803 195.298 31.2811 195.368 29.8808C195.363 29.1164 195.178 28.364 194.829 27.6841C194.48 27.0042 193.975 26.4159 193.357 25.9664Z" fill="#EC994B"/>
<path d="M89.3771 162.301L97.1295 157.82L94.5453 156.331L86.793 160.805L89.3771 162.301Z" fill="#EC994B"/>
<path d="M104.889 153.346L112.647 148.865L110.057 147.376L102.305 151.85L104.889 153.346Z" fill="#EC994B"/>
<path d="M101.699 151.519C101.699 155.262 99.0767 159.793 95.837 161.703C94.1121 162.702 92.5591 162.734 91.4898 161.983C91.0587 161.644 90.7046 161.218 90.4511 160.731C90.1976 160.245 90.0505 159.711 90.0195 159.163C90.2372 159.062 90.4497 158.949 90.656 158.826C93.8957 156.961 96.518 152.41 96.518 148.642C96.5211 148.363 96.5041 148.085 96.4671 147.808C96.9526 147.552 97.4863 147.399 98.0342 147.359C98.5821 147.32 99.1322 147.395 99.6495 147.579C100.922 148.114 101.699 149.495 101.699 151.519Z" fill="#263238"/>
<path d="M102.226 143.83L102.118 143.767C100.489 142.901 98.2991 143.06 95.836 144.473C90.8396 147.357 86.7852 154.371 86.7852 160.143C86.7852 163.046 87.8099 165.076 89.4648 166.018C91.1196 166.96 93.3537 166.801 95.8296 165.382C100.826 162.498 104.874 155.478 104.874 149.705C104.88 146.803 103.875 144.772 102.226 143.83ZM95.8614 161.69C94.1302 162.689 92.5772 162.721 91.5079 161.964C90.5659 161.327 89.993 160.054 89.993 158.304C89.993 154.568 92.6217 150.03 95.8614 148.12C97.3381 147.267 98.681 147.121 99.6803 147.56C100.915 148.088 101.692 149.47 101.692 151.506C101.698 155.274 99.0757 159.825 95.836 161.703L95.8614 161.69Z" fill="#37474F"/>
<path d="M99.9806 147.732L99.9106 147.694C98.8541 147.127 97.422 147.236 95.8371 148.146C92.5974 150.017 89.9688 154.568 89.9688 158.33C89.9688 160.239 90.6052 161.512 91.7064 162.148C92.8075 162.785 94.2523 162.658 95.8371 161.728C99.0768 159.857 101.699 155.306 101.699 151.545C101.699 149.661 101.044 148.337 99.9806 147.732ZM95.8371 160.366C94.4496 161.168 93.2021 161.194 92.3365 160.583C91.5854 160.054 91.1208 159.042 91.1208 157.642C91.21 156.006 91.6835 154.414 92.5029 152.995C93.3223 151.577 94.4646 150.371 95.8371 149.476C96.283 149.165 96.7954 148.962 97.3335 148.883C97.8716 148.805 98.4206 148.853 98.9368 149.024C99.9297 149.451 100.553 150.558 100.553 152.207C100.465 153.842 99.9915 155.433 99.172 156.851C98.3524 158.269 97.2099 159.473 95.8371 160.366Z" fill="#EC994B"/>
<path d="M120.397 144.384L128.155 139.91L125.571 138.414L117.812 142.895L120.397 144.384Z" fill="#EC994B"/>
<path d="M135.919 135.429L143.671 130.954L141.087 129.459L133.328 133.939L135.919 135.429Z" fill="#EC994B"/>
<path d="M151.427 126.474L159.179 121.999L156.595 120.503L148.836 124.984L151.427 126.474Z" fill="#EC994B"/>
<path d="M112.824 84.8284C112.905 84.7201 113.019 84.6404 113.148 84.601C113.278 84.5616 113.416 84.5644 113.544 84.6091C113.672 84.6538 113.782 84.738 113.858 84.8495C113.935 84.9611 113.974 85.0941 113.97 85.2293C114.02 85.5916 113.983 85.9606 113.862 86.3058C113.742 86.651 113.541 86.9627 113.276 87.2152C112.767 87.6543 112.251 87.4761 112.13 86.8142C112.081 86.4519 112.118 86.0831 112.239 85.738C112.36 85.3929 112.56 85.0811 112.824 84.8284Z" fill="#EC994B"/>
<path d="M118.799 87.6416L113.612 84.6438L112.473 87.3871L117.679 90.3913L118.799 87.6416Z" fill="#EC994B"/>
<path d="M117.996 87.8136C118.506 87.3808 119.015 87.559 119.142 88.2209C119.189 88.5827 119.15 88.9504 119.028 89.2942C118.907 89.6381 118.706 89.9486 118.442 90.2004C117.933 90.6395 117.417 90.4613 117.296 89.7994C117.25 89.4367 117.289 89.0682 117.411 88.7234C117.532 88.3785 117.733 88.0669 117.996 87.8136Z" fill="#EC994B"/>
<path d="M157.867 112.916C157.867 113.044 157.867 113.158 157.867 113.286C157.867 113.54 157.867 113.801 157.867 114.062C156.836 113.623 155.493 113.769 154.016 114.622C150.776 116.493 148.148 121.044 148.148 124.806C148.148 126.55 148.72 127.81 149.662 128.466C149.398 128.654 149.124 128.828 148.841 128.988L148.542 129.14L147.645 132.52L142.451 129.624C140.809 128.676 139.797 126.652 139.797 123.762C139.797 117.989 143.845 110.975 148.841 108.085C151.311 106.66 153.545 106.513 155.206 107.449L160.298 110.3L160.406 110.364L157.867 112.916Z" fill="#455A64"/>
<path d="M160.402 110.307L160.294 110.243C158.664 109.378 156.475 109.537 154.012 110.95C149.015 113.833 144.961 120.847 144.961 126.62C144.961 129.522 145.986 131.553 147.641 132.495C149.295 133.437 151.529 133.278 154.005 131.858C159.002 128.975 163.05 121.954 163.05 116.182C163.069 113.279 162.044 111.249 160.402 110.307ZM154.037 128.167C152.306 129.166 150.753 129.198 149.684 128.44C148.742 127.804 148.169 126.531 148.169 124.78C148.169 121.044 150.797 116.506 154.037 114.597C155.514 113.744 156.857 113.597 157.888 114.037C159.123 114.565 159.899 115.946 159.899 117.983C159.886 121.751 157.251 126.302 154.012 128.167H154.037Z" fill="#37474F"/>
<path d="M159.887 118.008C159.887 121.751 157.264 126.283 154.024 128.192C152.3 129.191 150.747 129.223 149.677 128.472C149.246 128.133 148.892 127.707 148.639 127.221C148.385 126.734 148.238 126.2 148.207 125.652C148.425 125.551 148.637 125.438 148.844 125.315C152.083 123.45 154.706 118.899 154.706 115.131C154.709 114.853 154.692 114.574 154.655 114.298C155.14 114.041 155.674 113.888 156.222 113.848C156.77 113.809 157.32 113.884 157.837 114.068C159.097 114.603 159.887 115.972 159.887 118.008Z" fill="#263238"/>
<path d="M158.156 114.209L158.086 114.164C157.03 113.604 155.591 113.706 154.013 114.622C150.773 116.494 148.144 121.038 148.144 124.806C148.144 126.715 148.781 127.988 149.882 128.625C150.983 129.261 152.428 129.128 154.013 128.198C157.253 126.334 159.875 121.783 159.875 118.015C159.888 116.137 159.251 114.82 158.156 114.209ZM154.013 126.836C152.619 127.645 151.371 127.67 150.512 127.059C149.755 126.531 149.296 125.519 149.296 124.119C149.386 122.483 149.859 120.891 150.679 119.472C151.498 118.053 152.64 116.847 154.013 115.953C155.197 115.265 156.279 115.144 157.106 115.501C158.099 115.927 158.723 117.035 158.723 118.683C158.634 120.317 158.162 121.907 157.343 123.323C156.525 124.74 155.384 125.944 154.013 126.836Z" fill="#EC994B"/>
<path d="M148.838 119.911L163.477 111.459C165.177 110.472 159.658 104.712 155.553 104.324C153.293 104.051 151.001 104.268 148.832 104.96C148.832 104.96 151.957 108.964 151.422 111.236C150.888 113.508 148.838 119.911 148.838 119.911Z" fill="#EC994B"/>
<path d="M128.157 96.0242C128.157 96.0242 149.377 106.73 150.294 107.373C151.21 108.016 150.294 115.481 148.836 119.911C147.379 124.341 145.138 131.152 144.241 133.061C143.344 134.971 142.172 135.683 140.021 136.925L124.745 145.753L104.066 148.273L95.8555 143.818L97.9941 130.382C97.9941 130.382 119.972 118.689 122.982 116.952C125.993 115.214 134.897 107.061 128.157 96.0242Z" fill="#EC994B"/>
<path opacity="0.2" d="M128.157 96.0242C128.157 96.0242 149.377 106.73 150.294 107.373C151.21 108.016 150.294 115.481 148.836 119.911C147.379 124.341 145.138 131.152 144.241 133.061C143.344 134.971 142.172 135.683 140.021 136.925L124.745 145.753L104.066 148.273L95.8555 143.818L97.9941 130.382C97.9941 130.382 119.972 118.689 122.982 116.952C125.993 115.214 134.897 107.061 128.157 96.0242Z" fill="black"/>
<path d="M150.704 117.359C152.614 112.229 154.039 107.977 153.797 105.107C153.505 101.702 152.232 98.9201 146.618 97.5199C141.004 96.1196 133.156 96.1451 133.156 96.1451L130.77 97.5262C130.77 97.5262 146.911 106.883 148.744 107.901C149.864 108.537 151.061 111.344 148.865 119.918L149.24 120.134C149.425 120.249 150.093 119.008 150.704 117.359Z" fill="#EC994B"/>
<path opacity="0.3" d="M150.704 117.359C152.614 112.229 154.039 107.977 153.797 105.107C153.505 101.702 152.232 98.9201 146.618 97.5199C141.004 96.1196 133.156 96.1451 133.156 96.1451L130.77 97.5262C130.77 97.5262 146.911 106.883 148.744 107.901C149.864 108.537 151.061 111.344 148.865 119.918L149.24 120.134C149.425 120.249 150.093 119.008 150.704 117.359Z" fill="white"/>
<path d="M138.473 101.994L141.082 100.505C141.082 100.505 140.93 91.4606 137.123 89.2647C133.317 87.0688 120.397 88.5646 120.397 88.5646L117.812 90.0539L138.473 101.994Z" fill="#EC994B"/>
<path d="M130.009 91.3333C128.768 92.0525 128.768 93.2109 130.009 93.9237C130.705 94.2781 131.475 94.4628 132.256 94.4628C133.037 94.4628 133.807 94.2781 134.503 93.9237C135.737 93.2109 135.737 92.0461 134.503 91.3333C133.806 90.9819 133.036 90.7988 132.256 90.7988C131.475 90.7988 130.706 90.9819 130.009 91.3333Z" fill="#F0F0F0"/>
<path d="M133.982 95.6549C133.11 96.1641 133.11 96.9852 133.982 97.488C134.475 97.7399 135.02 97.8713 135.573 97.8713C136.127 97.8713 136.672 97.7399 137.165 97.488C138.043 96.9852 138.043 96.1641 137.165 95.6549C136.671 95.4059 136.126 95.2762 135.573 95.2762C135.021 95.2762 134.476 95.4059 133.982 95.6549Z" fill="#F0F0F0"/>
<path d="M123.983 90.1812C123.105 90.684 123.105 91.5051 123.983 92.0142C124.476 92.2632 125.021 92.3929 125.574 92.3929C126.127 92.3929 126.672 92.2632 127.165 92.0142C128.044 91.5051 128.044 90.684 127.165 90.1812C126.673 89.9292 126.127 89.7979 125.574 89.7979C125.021 89.7979 124.476 89.9292 123.983 90.1812Z" fill="#F0F0F0"/>
<path d="M138.885 99.372C139.394 98.9329 139.904 99.1111 140.031 99.773C140.078 100.136 140.039 100.504 139.917 100.849C139.796 101.194 139.595 101.506 139.331 101.759C139.25 101.867 139.136 101.947 139.007 101.986C138.877 102.026 138.739 102.023 138.611 101.978C138.483 101.933 138.373 101.849 138.297 101.738C138.22 101.626 138.181 101.493 138.185 101.358C138.136 100.995 138.174 100.626 138.296 100.281C138.417 99.9353 138.62 99.6239 138.885 99.372Z" fill="#EC994B"/>
<path d="M144.823 102.185L139.629 99.1875L138.496 101.931L143.696 104.929L144.823 102.185Z" fill="#EC994B"/>
<path d="M144.017 102.357C144.098 102.249 144.211 102.169 144.341 102.13C144.47 102.09 144.609 102.093 144.736 102.138C144.864 102.183 144.974 102.267 145.051 102.378C145.127 102.49 145.166 102.623 145.162 102.758C145.211 103.121 145.173 103.49 145.051 103.835C144.929 104.18 144.727 104.492 144.462 104.744C143.953 105.183 143.444 104.999 143.317 104.343C143.269 103.98 143.308 103.611 143.429 103.266C143.551 102.921 143.752 102.61 144.017 102.357Z" fill="#EC994B"/>
<path d="M144.017 102.357C144.098 102.249 144.211 102.169 144.341 102.13C144.47 102.09 144.609 102.093 144.736 102.138C144.864 102.183 144.974 102.267 145.051 102.378C145.127 102.49 145.166 102.623 145.162 102.758C145.211 103.121 145.173 103.49 145.051 103.835C144.929 104.18 144.727 104.492 144.462 104.744C143.953 105.183 143.444 104.999 143.317 104.343C143.269 103.98 143.308 103.611 143.429 103.266C143.551 102.921 143.752 102.61 144.017 102.357Z" fill="black"/>
<path d="M99.6942 146.427C99.6942 146.555 99.6942 146.669 99.6942 146.796C99.6942 147.051 99.6942 147.312 99.6942 147.573C98.6631 147.134 97.3201 147.28 95.8753 148.133C92.6356 150.004 90.0069 154.555 90.0069 158.317C90.0069 160.061 90.5797 161.321 91.5217 161.977C91.2573 162.165 90.9832 162.339 90.7007 162.498L90.4015 162.651L89.5041 166.031L84.3104 163.135C82.6683 162.187 81.6562 160.163 81.6562 157.273C81.6562 151.5 85.7043 144.486 90.7007 141.596C93.1702 140.171 95.4043 140.024 97.0655 140.96L102.157 143.811L102.266 143.875L99.6942 146.427Z" fill="#455A64"/>
<path d="M84.2043 136.326L80.3281 149.762L88.0869 154.243L92.1031 140.89L84.2043 136.326Z" fill="#EC994B"/>
<path opacity="0.2" d="M84.2043 136.326L80.3281 149.762L88.0869 154.243L92.1031 140.89L84.2043 136.326Z" fill="black"/>
<path d="M84.2031 136.326C84.2031 136.326 88.6012 140.062 92.1019 140.89C96.6973 142.004 104.004 142.125 106.595 142.303C110.554 142.577 113.545 142.57 114.945 142.067C116.759 141.431 121.635 138.599 122.984 137.822C125.568 136.333 126.669 130.471 119.547 128.867C114.731 127.869 109.826 127.368 104.908 127.371L84.2031 136.326Z" fill="#EC994B"/>
<path d="M128.063 134.608C127.842 135.161 127.692 135.741 127.618 136.333C127.413 136.948 127.365 137.604 127.478 138.242C127.963 139.045 128.726 139.64 129.623 139.916C130.268 140.06 130.937 140.069 131.586 139.943C132.235 139.817 132.852 139.559 133.397 139.184C134.715 138.395 135.707 137.44 137.579 136.906C138.916 136.622 140.176 136.051 141.27 135.232C142.308 134.398 143.695 132.094 141.709 131.559C139.724 131.024 135.408 132.908 131.475 133.08L128.063 134.608Z" fill="#37474F"/>
<path d="M128.066 132.151V135.092C128.187 135.422 128.396 135.713 128.671 135.932C128.946 136.151 129.277 136.289 129.626 136.333C129.945 136.38 130.272 136.344 130.574 136.231C131.051 136.049 131.464 135.731 131.763 135.317C132.061 134.903 132.232 134.411 132.254 133.901L132.369 132.151H128.066Z" fill="#FFA8A7"/>
<path d="M133.667 113.967C133.667 117.626 132.636 133.449 132.636 133.449C132.636 133.449 131.14 135.359 127.888 133.449L126.793 115.768L133.667 113.967Z" fill="#37474F"/>
<path d="M116.606 129.56L126.789 123.692C127.207 123.473 127.556 123.144 127.8 122.741C128.044 122.338 128.173 121.875 128.173 121.404C128.173 120.933 128.044 120.47 127.8 120.067C127.556 119.664 127.207 119.335 126.789 119.116L119.202 114.737C118.775 114.52 118.303 114.408 117.824 114.408C117.346 114.408 116.874 114.52 116.446 114.737L106.263 120.605C105.847 120.826 105.5 121.155 105.257 121.558C105.015 121.961 104.887 122.423 104.887 122.893C104.887 123.364 105.015 123.825 105.257 124.228C105.5 124.631 105.847 124.961 106.263 125.181L113.85 129.56C114.277 129.777 114.749 129.89 115.228 129.89C115.706 129.89 116.178 129.777 116.606 129.56Z" fill="#EC994B"/>
<path d="M116.606 129.56L126.789 123.692C127.207 123.473 127.556 123.144 127.8 122.741C128.044 122.338 128.173 121.875 128.173 121.404C128.173 120.933 128.044 120.47 127.8 120.067C127.556 119.664 127.207 119.335 126.789 119.116L119.202 114.737C118.775 114.52 118.303 114.408 117.824 114.408C117.346 114.408 116.874 114.52 116.446 114.737L106.263 120.605C105.847 120.826 105.5 121.155 105.257 121.558C105.015 121.961 104.887 122.423 104.887 122.893C104.887 123.364 105.015 123.825 105.257 124.228C105.5 124.631 105.847 124.961 106.263 125.181L113.85 129.56C114.277 129.777 114.749 129.89 115.228 129.89C115.706 129.89 116.178 129.777 116.606 129.56Z" fill="white"/>
<path d="M106.266 122.196L113.852 126.575C114.28 126.792 114.752 126.905 115.23 126.905C115.709 126.905 116.181 126.792 116.608 126.575L126.792 120.707C126.958 120.651 127.103 120.543 127.205 120.401C127.307 120.258 127.362 120.087 127.362 119.911C127.362 119.736 127.307 119.565 127.205 119.422C127.103 119.279 126.958 119.172 126.792 119.116L119.205 114.737C118.778 114.52 118.306 114.408 117.827 114.408C117.348 114.408 116.876 114.52 116.449 114.737L106.266 120.605C106.099 120.662 105.955 120.769 105.853 120.911C105.75 121.054 105.695 121.225 105.695 121.401C105.695 121.576 105.75 121.747 105.853 121.89C105.955 122.033 106.099 122.14 106.266 122.196Z" fill="#EC994B"/>
<path d="M112.471 83.2435L111.179 88.5709L105.629 88.9082L106.825 81.525L112.471 83.2435Z" fill="#FFA8A7"/>
<path d="M117.881 79.2336C117.881 79.2336 118.517 81.4868 118.256 81.6141C117.855 81.6752 117.448 81.6752 117.047 81.6141L117.881 79.2336Z" fill="#F28F8F"/>
<path d="M116.814 72.0414C117.705 73.0916 118.52 74.8165 117.89 79.0427C117.203 83.6636 116.35 84.1982 115.662 84.6438C114.765 85.2293 111.175 84.9175 110.163 84.1791C108.947 83.2944 107.07 80.4875 106.624 77.7188C106.102 74.4664 107.191 70.8575 109.584 70.2402C112.951 69.3682 116.057 71.1503 116.814 72.0414Z" fill="#FFA8A7"/>
<path d="M106.263 83.0208C107.122 83.9119 108.885 84.1537 109.993 84.3574C111.1 84.5611 114.506 84.7838 115.511 82.3588C116.517 79.9338 115.83 78.1899 117.064 77.6043C118.299 77.0187 119.534 76.6368 119.858 76.3313C120.183 76.0258 120.189 72.0351 116.873 69.9665C113.557 67.8979 108.478 67.4206 105.137 71.615C102.603 74.8547 103.641 80.2839 106.263 83.0208Z" fill="#455A64"/>
<path d="M109.605 84.3892C110.465 84.4656 113.183 84.0392 114.004 82.919C114.825 81.7987 115.156 79.7938 115.277 78.7436C115.288 78.33 115.439 77.9325 115.707 77.6167C115.974 77.3008 116.341 77.0854 116.747 77.006C117.568 76.7451 119.382 75.854 119.382 75.854V75.3575C119.967 75.3208 120.554 75.3208 121.139 75.3575C121.52 75.4275 121.31 75.994 120.343 76.4841C119.375 76.9742 116.721 77.9226 116.314 78.2472C115.907 78.5718 115.716 79.9402 115.391 81.3978C115.066 82.8553 114.061 85.0321 109.605 84.3892Z" fill="#37474F"/>
<path d="M117.243 90.4167L120.425 88.59C120.731 87.6671 120.24 87.2025 119.375 87.2598C118.509 87.3171 118.777 86.4769 118.248 86.2414C117.554 85.9232 117.16 86.1014 116.848 85.955C116.536 85.8086 116.402 85.4394 115.995 85.3949C114.175 85.223 112.934 87.8199 112.934 87.8199L117.243 90.4167Z" fill="#F28F8F"/>
<path d="M95.6367 113.788C95.6367 113.788 109.697 106.819 112.147 105.692C114.598 104.566 118.442 102.93 120.485 102.93C121.283 102.996 122.031 103.348 122.591 103.92C123.151 104.493 123.486 105.249 123.534 106.049C123.56 107.276 123.49 108.504 123.324 109.721C119.461 110.988 115.513 111.982 111.511 112.694C105.661 113.712 95.6367 113.788 95.6367 113.788Z" fill="#37474F"/>
<path d="M97.1672 109.759C97.1672 112.649 96.8935 115.653 98.0965 117.766C99.2994 119.88 105.817 124.768 111.953 123.743C115.963 123.068 127.865 117.588 127.865 117.588C127.865 117.588 133.638 115.469 133.663 113.96C133.701 111.739 133.549 108.607 128.514 108.741C123.925 108.862 110.387 111.688 110.387 111.688L97.1672 109.759Z" fill="#455A64"/>
<path d="M101.093 86.8651C103.269 84.5929 104.74 84.4019 105.783 84.682C108.182 85.3685 110.505 86.2984 112.715 87.457C112.715 87.457 111.875 95.5913 115.853 97.9335V110.612C115.853 110.612 115.732 111.987 114 113.356C112.473 114.558 109.017 115.774 104.892 115.43C99.9914 115.023 97.1654 109.759 97.1654 109.759C97.1654 109.759 97.0381 99.3911 97.7319 95.2731C98.5466 90.4676 100.341 87.6543 101.093 86.8651Z" fill="#455A64"/>
<path d="M115.857 98.5509C115.857 98.5509 113.451 96.6415 112.719 94.1592C112.719 94.1592 113.005 98.0545 115.857 100.028V98.5509Z" fill="#37474F"/>
<path d="M138.128 104.534C139.271 104.581 140.395 104.233 141.31 103.547C141.31 103.547 142.418 101.396 143.78 101.581C143.78 101.581 144.022 100.664 143.462 100.365C142.902 100.066 142.66 100.149 142.431 99.8304C142.202 99.5121 142.176 98.9202 141.158 98.9202C140.738 98.9202 140.795 98.6211 139.777 98.5001C138.758 98.3792 137.752 100.728 137.008 100.728L138.128 104.534Z" fill="#FFA8A7"/>
<path d="M112.716 87.457C116.21 87.998 117.476 89.0355 118.749 90.213C120.022 91.3905 127.813 99.2065 127.813 99.2065L137.246 100.562C137.741 100.964 138.105 101.505 138.289 102.115C138.671 103.223 138.328 104.432 137.965 104.718C137.965 104.718 128.609 105.279 126.769 104.929C124.93 104.578 115.822 98.5318 115.822 98.5318C114.951 97.8753 114.221 97.051 113.674 96.1076C113.128 95.1642 112.776 94.1207 112.639 93.039C112.047 89.201 112.716 87.457 112.716 87.457Z" fill="#455A64"/>
<path d="M104.328 121.076L89.8737 138.719C89.7133 138.74 89.5517 138.75 89.39 138.751C88.8168 138.76 88.2504 138.627 87.7415 138.363L75.5338 131.311L74.7063 130.833C74.2544 130.572 73.8789 129.503 73.8789 128.447V125.474C73.8784 122.421 74.6816 119.421 76.2078 116.777C77.734 114.132 79.9293 111.936 82.5733 110.409L97.1487 101.994L112.66 110.95L104.328 121.076Z" fill="#EC994B"/>
<g opacity="0.1">
<path d="M104.328 121.076L89.8737 138.719C89.7133 138.74 89.5517 138.75 89.39 138.751C88.8168 138.76 88.2504 138.627 87.7415 138.363L75.5338 131.311L74.7063 130.833C74.2544 130.572 73.8789 129.503 73.8789 128.447V125.474C73.8784 122.421 74.6816 119.421 76.2078 116.777C77.734 114.132 79.9293 111.936 82.5733 110.409L97.1487 101.994L112.66 110.95L104.328 121.076Z" fill="black"/>
</g>
<path d="M99.3452 127.161L112.641 110.956L97.1302 102.001L82.5611 110.409C80.6765 111.5 79.0139 112.936 77.6602 114.641L99.3452 127.161Z" fill="#EC994B"/>
<path d="M112.641 123.966C112.641 125.022 112.272 126.092 111.813 126.353L110.986 126.83L91.0259 138.357C90.6627 138.552 90.265 138.676 89.8548 138.719C89.6943 138.74 89.5328 138.75 89.371 138.751V134.43C89.3705 131.375 90.1744 128.375 91.7018 125.73C93.2292 123.086 95.4262 120.89 98.0718 119.364L99.7203 118.416L112.641 110.95V123.966Z" fill="#EC994B"/>
<g opacity="0.2">
<path d="M112.641 123.966C112.641 125.022 112.272 126.092 111.813 126.353L110.986 126.83L91.0259 138.357C90.6628 138.552 90.265 138.676 89.8548 138.719C89.6944 138.74 89.5328 138.75 89.3711 138.751V134.43C89.3706 131.375 90.1745 128.375 91.7019 125.73C93.2293 123.086 95.4263 120.89 98.0718 119.364L99.7203 118.416L112.641 110.95V123.966Z" fill="black"/>
</g>
<path d="M116.923 145.797L124.732 145.772L135.909 139.318L124.961 147.229L116.719 147.344L116.923 145.797Z" fill="#E0E0E0"/>
<path d="M97.9596 156.91C97.9596 156.91 112.039 151.602 113.235 150.978C114.64 150.118 115.972 149.145 117.22 148.069C117.474 147.733 117.594 147.313 117.555 146.893C117.516 146.472 117.322 146.082 117.01 145.797C117.01 145.797 111.281 145.536 109.811 145.988C108.99 146.236 95.7383 150.488 95.7383 150.488L97.9596 156.91Z" fill="#E0E0E0"/>
<path d="M97.336 150.978C96.1712 149.979 95.0001 150.393 94.7137 151.895C94.6043 152.723 94.6919 153.566 94.9695 154.355C95.2471 155.143 95.7068 155.855 96.3112 156.433C97.476 157.432 98.6471 157.025 98.9335 155.516C99.0424 154.687 98.9545 153.845 98.677 153.056C98.3994 152.268 97.94 151.556 97.336 150.978Z" fill="#455A64"/>
</svg>
