<svg width="28" height="28" viewBox="0 0 28 28" fill="none" xmlns="http://www.w3.org/2000/svg">
<g clip-path="url(#clip0_1_68)">
<path d="M20.1213 7.25237L6.83984 3.6936L3.75558 15.2042L17.0371 18.763L20.1213 7.25237Z" stroke="white" stroke-width="2" stroke-linecap="round" stroke-linejoin="round"/>
<path d="M18.9375 11.6794L22.4792 12.6284L24.4238 15.9965L23.2375 20.4237L17.0395 18.7629L18.9375 11.6794Z" stroke="white" stroke-width="2" stroke-linecap="round" stroke-linejoin="round"/>
<path d="M6.55467 20.699C7.7772 21.0266 9.0338 20.3011 9.36138 19.0785C9.68895 17.856 8.96345 16.5994 7.74092 16.2718C6.5184 15.9443 5.26179 16.6698 4.93422 17.8923C4.60664 19.1148 5.33214 20.3714 6.55467 20.699Z" stroke="white" stroke-width="2" stroke-linecap="round" stroke-linejoin="round"/>
<path d="M18.0662 23.7832C19.2887 24.1108 20.5453 23.3853 20.8729 22.1628C21.2005 20.9402 20.475 19.6836 19.2525 19.3561C18.0299 19.0285 16.7733 19.754 16.4457 20.9765C16.1182 22.199 16.8437 23.4556 18.0662 23.7832Z" stroke="white" stroke-width="2" stroke-linecap="round" stroke-linejoin="round"/>
</g>
<defs>
<clipPath id="clip0_1_68">
<rect width="22" height="22" fill="white" transform="translate(6.66797 0.800049) rotate(15)"/>
</clipPath>
</defs>
</svg>
