<svg width="256" height="234" viewBox="0 0 256 234" fill="none" xmlns="http://www.w3.org/2000/svg">
<path d="M229.156 233.312C229.156 233.386 177.849 233.45 114.583 233.45C51.3172 233.45 0 233.386 0 233.312C0 233.238 51.3066 233.175 114.583 233.175C177.859 233.175 229.156 233.227 229.156 233.312Z" fill="#263238"/>
<path d="M148.781 33.9924V167.834H232.251V33.9924H148.781ZM192.341 37.2385H229.24V66.7963H192.341V37.2385ZM192.341 70.0423H229.24V99.293H192.341V70.0423ZM192.341 102.563H229.24V132.44H192.341V102.563ZM189.294 164.594H151.835V135.686H189.294V164.594ZM189.294 132.416H151.835V102.533H189.294V132.416ZM189.294 99.293H151.835V70.0423H189.294V99.293ZM189.294 66.7722H151.835V37.2385H189.294V66.7722ZM192.341 164.563V135.656H229.24V164.563H192.341Z" fill="#B2B2B2"/>
<path d="M80.8435 55.8174H44.625V104.833H80.8435V55.8174Z" fill="#B2B2B2"/>
<path d="M77.4201 60.4425H48.043V100.196H77.4201V60.4425Z" fill="white"/>
<path d="M51.7059 110.482H23.3164V148.899H51.7059V110.482Z" fill="#B2B2B2"/>
<path d="M49.0194 114.114H25.9959V145.274H49.0194V114.114Z" fill="white"/>
<path d="M93.8398 199.228H48.6058L48.6058 165.828C48.6058 162.691 49.852 159.683 52.0702 157.464C54.2883 155.246 57.2968 154 60.4338 154H82.0059C85.1429 154 88.1513 155.246 90.3695 157.464C92.5877 159.683 93.8338 162.691 93.8338 165.828V199.228H93.8398Z" fill="white" stroke="#263238" stroke-miterlimit="10"/>
<path d="M41.8787 230.279H10.0625L10.0625 191.971C10.0625 188.711 11.3575 185.585 13.6626 183.279C15.9678 180.974 19.0942 179.679 22.3542 179.679H41.8787L41.8787 230.267V230.279Z" fill="white"/>
<path d="M41.8787 230.279H10.0625L10.0625 191.971C10.0625 188.711 11.3575 185.585 13.6626 183.279C15.9678 180.974 19.0942 179.679 22.3542 179.679H41.8787L41.8787 230.267V230.279Z" stroke="#263238" stroke-miterlimit="10"/>
<path d="M50.7148 230.279H18.8987L18.8987 191.971C18.8987 188.711 20.1937 185.585 22.4988 183.279C24.8039 180.974 27.9304 179.679 31.1903 179.679H50.7148L50.7148 230.267V230.279Z" fill="white" stroke="#263238" stroke-miterlimit="10"/>
<path d="M86.9336 199.228H41.6996L41.6996 165.828C41.6996 162.691 42.9457 159.683 45.1639 157.464C47.3821 155.246 50.3905 154 53.5275 154H75.1057C78.2426 154 81.2511 155.246 83.4693 157.464C85.6874 159.683 86.9336 162.691 86.9336 165.828V199.228Z" fill="white"/>
<path d="M86.9336 199.228H41.6996L41.6996 165.828C41.6996 162.691 42.9457 159.683 45.1639 157.464C47.3821 155.246 50.3905 154 53.5275 154H75.1057C78.2426 154 81.2511 155.246 83.4693 157.464C85.6874 159.683 86.9336 162.691 86.9336 165.828V199.228V199.228Z" stroke="#263238" stroke-miterlimit="10"/>
<path d="M81.9883 230.279H21.4454V202.354C21.4454 201.22 21.8959 200.132 22.6978 199.33C23.4997 198.528 24.5873 198.078 25.7213 198.078H81.9883V230.279Z" fill="white"/>
<path d="M81.9883 230.279H21.4454V202.354C21.4454 201.22 21.8959 200.132 22.6978 199.33C23.4997 198.528 24.5873 198.078 25.7213 198.078H81.9883V230.279Z" stroke="#263238" stroke-miterlimit="10"/>
<path d="M22.3359 209.189H53.044" stroke="#263238" stroke-miterlimit="10"/>
<path d="M84.9922 230.279H53.176V191.971C53.176 188.711 54.471 185.585 56.7762 183.279C59.0813 180.974 62.2077 179.679 65.4677 179.679H84.9922V230.267V230.279Z" fill="white"/>
<path d="M84.9922 230.279H53.176V191.971C53.176 188.711 54.471 185.585 56.7762 183.279C59.0813 180.974 62.2077 179.679 65.4677 179.679H84.9922V230.267V230.279Z" stroke="#263238" stroke-miterlimit="10"/>
<path d="M93.8398 230.279H62.0237V191.971C62.0237 188.711 63.3187 185.585 65.6238 183.279C67.9289 180.974 71.0554 179.679 74.3153 179.679H93.8398V230.267V230.279Z" fill="white" stroke="#263238" stroke-miterlimit="10"/>
<path d="M134.657 205.383L133.272 192.507H71.2657L67.9414 205.383H134.657Z" fill="#263238" stroke="#263238" stroke-linecap="round" stroke-linejoin="round"/>
<path d="M142.115 64.8509C142.115 65.6338 140.911 66.3625 140.821 67.1334C140.73 67.9042 141.869 68.8257 141.742 69.5905C141.616 70.3553 140.291 70.8913 140.11 71.6742C139.929 72.4571 140.869 73.5111 140.628 74.2458C140.387 74.9805 138.99 75.2997 138.689 76.0164C138.388 76.733 139.158 77.9496 138.809 78.6421C138.46 79.3347 137.002 79.425 136.617 80.0935C136.232 80.762 136.792 82.0688 136.334 82.7012C135.876 83.3335 134.455 83.2131 133.925 83.8093C133.395 84.4055 133.805 85.7907 133.263 86.3507C132.721 86.9108 131.329 86.5856 130.751 87.1035C130.173 87.6215 130.348 89.0488 129.733 89.5125C129.119 89.9762 127.788 89.4703 127.138 89.9039C126.487 90.3376 126.475 91.7709 125.801 92.1623C125.126 92.5538 123.874 91.8612 123.175 92.2045C122.477 92.5478 122.266 93.963 121.543 94.2641C120.82 94.5653 119.676 93.698 118.935 93.951C118.195 94.2039 117.803 95.571 117.044 95.7577C116.286 95.9444 115.274 94.9567 114.503 95.1073C113.732 95.2578 113.166 96.5647 112.395 96.6671C111.624 96.7694 110.739 95.6433 109.956 95.6914C109.173 95.7396 108.444 96.9682 107.661 96.9682C106.879 96.9682 106.138 95.7637 105.367 95.6914C104.596 95.6192 103.693 96.7634 102.928 96.6671C102.163 96.5707 101.573 95.2578 100.814 95.1073C100.055 94.9567 99.0073 95.9564 98.2726 95.7577C97.5379 95.559 97.1163 94.1859 96.3816 93.951C95.6469 93.7161 94.4906 94.5532 93.7739 94.2581C93.0572 93.963 92.8404 92.5478 92.1418 92.2045C91.4433 91.8612 90.1906 92.5538 89.5161 92.1623C88.8416 91.7709 88.8235 90.3556 88.1791 89.9039C87.5347 89.4523 86.1917 89.9883 85.5835 89.5065C84.9752 89.0247 85.1439 87.6034 84.5657 87.0975C83.9876 86.5916 82.5904 86.9048 82.0544 86.3447C81.5184 85.7846 81.8918 84.3995 81.3919 83.8033C80.8921 83.2071 79.4648 83.3275 78.983 82.6952C78.5012 82.0628 79.1034 80.75 78.6999 80.0815C78.2964 79.413 76.8932 79.3287 76.5138 78.6361C76.1344 77.9435 76.9233 76.727 76.6282 76.0103C76.3331 75.2937 74.9299 74.9805 74.689 74.2398C74.4481 73.499 75.3936 72.4331 75.213 71.6682C75.0323 70.9034 73.6953 70.3855 73.5749 69.6146C73.4544 68.8437 74.5565 67.9404 74.4963 67.1575C74.4361 66.3746 73.2617 65.6519 73.2617 64.8509C73.2617 64.0499 74.4963 63.3333 74.5565 62.5624C74.6167 61.7915 73.5147 60.8701 73.6351 60.1053C73.7556 59.3404 75.0925 58.8044 75.2732 58.0516C75.4539 57.2988 74.5083 56.2449 74.7492 55.4801C74.9901 54.7152 76.3934 54.4262 76.6884 53.7095C76.9835 52.9928 76.2187 51.7824 76.574 51.0898C76.9293 50.3972 78.3807 50.3009 78.7601 49.6384C79.1396 48.9759 78.5915 47.657 79.0432 47.0247C79.4949 46.3923 80.9222 46.5128 81.4521 45.9166C81.9821 45.3204 81.5726 43.9352 82.1146 43.3751C82.6566 42.815 84.0478 43.1403 84.632 42.6223C85.2161 42.1044 85.0294 40.6771 85.6437 40.2134C86.258 39.7497 87.595 40.2495 88.2393 39.8159C88.8837 39.3823 88.9018 37.949 89.5763 37.5575C90.2508 37.1661 91.5035 37.8647 92.2021 37.5154C92.9007 37.1661 93.1115 35.7568 93.8341 35.4617C94.5568 35.1666 95.7011 36.0218 96.4418 35.7749C97.1826 35.528 97.574 34.1489 98.3328 33.9682C99.0917 33.7875 100.109 34.7692 100.874 34.6186C101.639 34.468 102.211 33.1612 102.988 33.0588C103.765 32.9564 104.644 34.0886 105.427 34.0344C106.21 33.9802 106.933 32.7577 107.722 32.7577C108.511 32.7577 109.245 33.9622 110.016 34.0344C110.787 34.1067 111.684 32.9625 112.425 33.0588C113.166 33.1552 113.78 34.4741 114.539 34.6186C115.298 34.7631 116.346 33.7694 117.08 33.9682C117.815 34.1669 118.237 35.546 118.971 35.7749C119.706 36.0037 120.863 35.1727 121.579 35.4617C122.296 35.7508 122.519 37.1781 123.211 37.5154C123.904 37.8526 125.169 37.1661 125.837 37.5575C126.505 37.949 126.536 39.3642 127.174 39.8159C127.812 40.2676 129.161 39.7376 129.77 40.2134C130.378 40.6891 130.209 42.1164 130.787 42.6223C131.366 43.1282 132.763 42.8211 133.299 43.3751C133.835 43.9292 133.467 45.3204 133.961 45.9166C134.455 46.5128 135.888 46.3984 136.37 47.0247C136.852 47.651 136.25 48.9759 136.653 49.6384C137.057 50.3009 138.49 50.3972 138.845 51.0898C139.201 51.7824 138.43 52.9928 138.725 53.7095C139.02 54.4262 140.423 54.7393 140.664 55.4801C140.905 56.2208 139.959 57.2868 140.146 58.0516C140.333 58.8165 141.658 59.3344 141.778 60.1053C141.899 60.8761 140.797 61.7855 140.857 62.5624C140.917 63.3393 142.115 64.062 142.115 64.8509Z" fill="#263238"/>
<path opacity="0.1" d="M142.116 64.8509C142.116 64.062 140.912 63.3333 140.828 62.5624C140.743 61.7915 141.87 60.8701 141.743 60.1053C141.617 59.3404 140.292 58.8044 140.111 58.0516C139.93 57.2988 140.87 56.2449 140.629 55.4801C140.388 54.7152 138.991 54.4262 138.69 53.7095C138.389 52.9928 139.159 51.7824 138.81 51.0898C138.461 50.3972 137.003 50.3009 136.618 49.6384C136.233 48.9759 136.793 47.6631 136.335 47.0247C135.877 46.3863 134.456 46.5188 133.926 45.9166C133.396 45.3143 133.806 43.9412 133.264 43.3751C132.722 42.809 131.33 43.1463 130.752 42.6223C130.174 42.0984 130.355 40.6831 129.734 40.2134C129.114 39.7436 127.789 40.2555 127.139 39.8159C126.488 39.3763 126.476 37.949 125.802 37.5575C125.127 37.1661 123.875 37.8647 123.176 37.5154C122.478 37.1661 122.267 35.7568 121.544 35.4617C120.821 35.1666 119.677 36.0218 118.936 35.7749C118.196 35.528 117.804 34.1489 117.045 33.9682C116.286 33.7875 115.275 34.7692 114.504 34.6186C113.733 34.468 113.167 33.1612 112.39 33.0588C111.613 32.9564 110.74 34.0886 109.981 34.0344C109.222 33.9802 108.469 32.7577 107.687 32.7577C106.904 32.7577 106.163 33.9622 105.392 34.0344C104.621 34.1067 103.718 32.9625 102.953 33.0588C102.188 33.1552 101.598 34.4741 100.839 34.6186C100.08 34.7631 99.0324 33.7694 98.2977 33.9682C97.563 34.1669 97.1414 35.546 96.4067 35.7749C95.6719 36.0037 94.5156 35.1727 93.799 35.4617C93.0823 35.7508 92.8655 37.1781 92.1669 37.5154C91.4683 37.8526 90.2157 37.1661 89.5412 37.5575C88.8667 37.949 88.8486 39.3642 88.2042 39.8159C87.5598 40.2676 86.2228 39.7376 85.6086 40.2134C84.9943 40.6891 85.1689 42.1164 84.5968 42.6223C84.0247 43.1282 82.6215 42.815 82.0794 43.3751C81.5374 43.9352 81.9168 45.3204 81.417 45.9166C80.9171 46.5128 79.4898 46.3923 79.008 47.0247C78.5262 47.657 79.1285 48.9699 78.725 49.6384C78.3215 50.3069 76.9183 50.3912 76.5389 51.0898C76.1595 51.7884 76.9544 52.9928 76.6533 53.7095C76.3522 54.4262 74.955 54.7393 74.7141 55.4801C74.4732 56.2208 75.4187 57.2868 75.238 58.0516C75.0574 58.8165 73.7204 59.3344 73.5999 60.1053C73.4795 60.8761 74.5816 61.7855 74.5214 62.5624C74.4611 63.3393 73.2266 64.062 73.2266 64.8509C73.2266 65.6398 74.4611 66.3625 74.5214 67.1334C74.5816 67.9042 73.4795 68.8257 73.5999 69.5905C73.7204 70.3553 75.0574 70.8913 75.238 71.6441C75.4187 72.3969 74.4732 73.4809 74.7141 74.2157C74.955 74.9504 76.3522 75.2696 76.6533 75.9863C76.9544 76.7029 76.1835 77.9194 76.5389 78.612C76.7267 78.8932 77.0018 79.1048 77.3218 79.2142C77.1411 78.5578 76.6533 77.8171 76.834 77.263C77.0749 76.5222 78.4781 76.2091 78.7732 75.4924C79.0683 74.7758 78.3094 73.5653 78.6587 72.8727C79.008 72.1801 80.4654 72.0838 80.8449 71.4213C81.2243 70.7588 80.6762 69.4399 81.1279 68.8076C81.5796 68.1752 83.0129 68.3017 83.5067 67.6995C84.0006 67.0972 83.6332 65.7241 84.1692 65.158C84.7052 64.5919 86.1084 64.9292 86.6866 64.4052C87.2647 63.8813 87.084 62.466 87.6983 61.9963C88.3126 61.5265 89.6496 62.0324 90.294 61.5988C90.9383 61.1652 90.9624 59.7319 91.6369 59.3404C92.3114 58.949 93.5581 59.6476 94.2627 59.2983C94.9673 58.949 95.1721 57.5397 95.8887 57.2446C96.6054 56.9495 97.7557 57.8047 98.4964 57.5578C99.2372 57.3109 99.6346 55.9318 100.387 55.7511C101.14 55.5704 102.194 56.5521 102.929 56.4015C103.664 56.251 104.266 54.9441 105.043 54.8417C105.82 54.7393 106.699 55.8715 107.452 55.8173C108.204 55.7631 108.963 54.5406 109.746 54.5406C110.529 54.5406 111.27 55.7451 112.041 55.8173C112.812 55.8896 113.709 54.7454 114.48 54.8417C115.251 54.9381 115.829 56.257 116.588 56.4015C117.346 56.546 118.394 55.5524 119.135 55.7511C119.876 55.9498 120.291 57.329 121.026 57.5578C121.761 57.7867 122.917 56.9556 123.634 57.2446C124.35 57.5337 124.567 58.961 125.26 59.3043C125.952 59.6476 127.217 58.955 127.886 59.3404C128.554 59.7259 128.584 61.1471 129.229 61.5988C129.873 62.0505 131.21 61.5205 131.824 61.9963C132.438 62.4721 132.258 63.8994 132.836 64.4052C133.414 64.9111 134.811 64.604 135.353 65.1641C135.895 65.7241 135.516 67.1033 136.016 67.6995C136.516 68.2957 137.943 68.1813 138.395 68.8136C138.846 69.446 138.274 70.7588 138.678 71.4213C138.925 71.8248 139.551 72.0235 140.081 72.2644C140.11 72.3685 140.144 72.4711 140.183 72.5716C140.078 72.2845 140.053 71.9744 140.111 71.6742C140.292 70.9214 141.623 70.3915 141.743 69.6206C141.863 68.8497 140.761 67.9464 140.828 67.1635C140.894 66.3806 142.116 65.6519 142.116 64.8509Z" fill="white"/>
<path d="M142.115 64.8509C142.115 65.6338 140.911 66.3625 140.821 67.1334C140.73 67.9042 141.869 68.8257 141.742 69.5905C141.616 70.3553 140.291 70.8913 140.11 71.6742C139.929 72.4571 140.869 73.5111 140.628 74.2458C140.387 74.9805 138.99 75.2997 138.689 76.0164C138.388 76.733 139.158 77.9496 138.809 78.6421C138.46 79.3347 137.002 79.425 136.617 80.0935C136.232 80.762 136.792 82.0688 136.334 82.7012C135.876 83.3335 134.455 83.2131 133.925 83.8093C133.395 84.4055 133.805 85.7907 133.263 86.3507C132.721 86.9108 131.329 86.5856 130.751 87.1035C130.173 87.6215 130.348 89.0488 129.733 89.5125C129.119 89.9762 127.788 89.4703 127.138 89.904C126.487 90.3376 126.475 91.7709 125.801 92.1623C125.126 92.5538 123.874 91.8612 123.175 92.2045C122.477 92.5478 122.266 93.963 121.543 94.2641C120.82 94.5653 119.676 93.698 118.935 93.951C118.195 94.2039 117.803 95.571 117.044 95.7577C116.286 95.9444 115.274 94.9567 114.503 95.1073C113.732 95.2578 113.166 96.5647 112.395 96.6671C111.624 96.7694 110.739 95.6433 109.956 95.6914C109.173 95.7396 108.444 96.9682 107.661 96.9682C106.879 96.9682 106.138 95.7637 105.367 95.6914C104.596 95.6192 103.693 96.7634 102.928 96.6671C102.163 96.5707 101.573 95.2578 100.814 95.1073C100.055 94.9567 99.0073 95.9564 98.2726 95.7577C97.5379 95.559 97.1163 94.1859 96.3816 93.951C95.6469 93.7161 94.4906 94.5532 93.7739 94.2581C93.0572 93.963 92.8404 92.5478 92.1419 92.2045C91.4433 91.8612 90.1906 92.5538 89.5161 92.1623C88.8416 91.7709 88.8235 90.3556 88.1791 89.904C87.5347 89.4523 86.1917 89.9883 85.5835 89.5065C84.9752 89.0247 85.1439 87.6034 84.5657 87.0975C83.9876 86.5916 82.5904 86.9048 82.0544 86.3447C81.5184 85.7846 81.8918 84.3995 81.3919 83.8033C80.8921 83.2071 79.4648 83.3275 78.983 82.6952C78.5012 82.0628 79.1034 80.75 78.6999 80.0815C78.2964 79.413 76.8932 79.3287 76.5138 78.6361C76.1344 77.9435 76.9233 76.727 76.6282 76.0103C76.3331 75.2937 74.9299 74.9805 74.689 74.2398C74.4481 73.499 75.3936 72.4331 75.213 71.6682C75.0323 70.9034 73.6953 70.3855 73.5749 69.6146C73.4544 68.8437 74.5565 67.9404 74.4963 67.1575C74.4361 66.3746 73.2617 65.6519 73.2617 64.8509C73.2617 64.0499 74.4963 63.3333 74.5565 62.5624C74.6167 61.7915 73.5147 60.8701 73.6351 60.1053C73.7556 59.3404 75.0925 58.8044 75.2732 58.0516C75.4539 57.2988 74.5083 56.2449 74.7492 55.4801C74.9901 54.7152 76.3934 54.4262 76.6884 53.7095C76.9835 52.9928 76.2187 51.7824 76.574 51.0898C76.9293 50.3972 78.3807 50.3009 78.7601 49.6384C79.1396 48.9759 78.5915 47.657 79.0432 47.0247C79.4949 46.3923 80.9222 46.5128 81.4521 45.9166C81.9821 45.3204 81.5726 43.9352 82.1146 43.3751C82.6566 42.815 84.0478 43.1403 84.632 42.6223C85.2161 42.1044 85.0294 40.6771 85.6437 40.2134C86.258 39.7497 87.595 40.2495 88.2393 39.8159C88.8837 39.3823 88.9018 37.949 89.5763 37.5575C90.2508 37.1661 91.5035 37.8647 92.2021 37.5154C92.9007 37.1661 93.1115 35.7568 93.8341 35.4617C94.5568 35.1666 95.7011 36.0218 96.4418 35.7749C97.1826 35.528 97.574 34.1489 98.3328 33.9682C99.0917 33.7875 100.109 34.7692 100.874 34.6186C101.639 34.468 102.211 33.1612 102.988 33.0588C103.765 32.9564 104.644 34.0886 105.427 34.0344C106.21 33.9802 106.933 32.7577 107.722 32.7577C108.511 32.7577 109.245 33.9622 110.016 34.0344C110.787 34.1067 111.684 32.9625 112.425 33.0588C113.166 33.1552 113.78 34.4741 114.539 34.6186C115.298 34.7631 116.346 33.7694 117.08 33.9682C117.815 34.1669 118.237 35.546 118.971 35.7749C119.706 36.0037 120.863 35.1727 121.579 35.4617C122.296 35.7508 122.519 37.1781 123.211 37.5154C123.904 37.8526 125.169 37.1661 125.837 37.5575C126.505 37.949 126.536 39.3642 127.174 39.8159C127.812 40.2676 129.161 39.7376 129.77 40.2134C130.378 40.6891 130.209 42.1164 130.787 42.6223C131.366 43.1282 132.763 42.8211 133.299 43.3751C133.835 43.9292 133.467 45.3204 133.961 45.9166C134.455 46.5128 135.888 46.3984 136.37 47.0247C136.852 47.651 136.25 48.9759 136.653 49.6384C137.057 50.3009 138.49 50.3972 138.845 51.0898C139.201 51.7824 138.43 52.9928 138.725 53.7095C139.02 54.4262 140.423 54.7393 140.664 55.4801C140.905 56.2208 139.959 57.2868 140.146 58.0516C140.333 58.8165 141.658 59.3344 141.778 60.1053C141.899 60.8761 140.797 61.7855 140.857 62.5624C140.917 63.3393 142.115 64.062 142.115 64.8509Z" stroke="#263238" stroke-linecap="round" stroke-linejoin="round"/>
<path d="M103.576 104.996C103.576 104.996 94.1451 107.61 87.3157 108.609C80.4863 109.609 76.2767 109.615 74.8735 113.03C73.4703 116.444 62.0217 154.982 59.6128 159.601C57.2038 164.22 55.8006 174.657 60.0163 174.855C64.2319 175.054 76.8789 148.562 76.8789 148.562L80.6911 155.789C80.6911 155.789 68.8511 192.923 69.0498 194.531C69.2486 196.138 74.47 199.348 84.3045 200.149C94.139 200.95 95.1448 200.752 101.974 202.558C108.803 204.365 118.03 201.956 122.45 199.547C126.871 197.138 131.881 196.337 133.893 195.133C135.904 193.928 135.898 193.73 135.898 191.321C135.898 188.912 126.461 154.181 126.461 154.181L132.086 139.323C132.086 139.323 144.932 165.822 145.534 168.231C146.136 170.64 149.948 173.651 153.562 172.85C157.175 172.049 160.789 169.435 159.789 163.413C158.789 157.391 141.921 115.439 140.716 111.825C139.512 108.212 140.915 104.797 135.898 103.593C130.882 102.388 106.19 103.791 106.19 103.791L103.576 104.996Z" fill="#EC994B"/>
<path opacity="0.3" d="M140.714 111.825C139.51 108.212 140.913 104.797 135.896 103.593C131.35 102.503 110.675 103.551 106.808 103.761L108.194 108.411C108.194 108.411 117.528 110.217 122.948 110.217C128.368 110.217 132.885 109.615 134.993 115.336C137.101 121.058 150.049 158.396 154.867 166.225C155.811 167.735 156.847 169.185 157.968 170.568C159.474 169.056 160.341 166.761 159.775 163.413C158.781 157.391 141.919 115.439 140.714 111.825Z" fill="black"/>
<path opacity="0.3" d="M133.892 195.133C135.897 193.928 135.897 193.73 135.897 191.321C135.897 188.912 126.46 154.181 126.46 154.181L131.844 139.956C130.297 137.692 128.002 133.982 128.267 132.301C128.545 129.768 128.68 127.22 128.671 124.671C128.671 124.671 127.165 134.307 122.949 139.727C118.734 145.147 97.3542 147.556 86.815 147.556C81.3166 147.556 78.2813 148.213 77.2274 149.224L79.0823 152.735C83.3582 155.439 93.8251 159.312 105.484 161.106C117.144 162.901 123.25 186.702 125.358 190.014C127.466 193.326 120.841 198.445 116.626 199.047C112.41 199.65 106.689 196.638 100.968 197.241C95.2464 197.843 92.5363 200.854 90.7296 197.843C88.9229 194.832 90.1273 187.605 88.3206 190.917C86.5139 194.229 85.9117 198.144 83.8039 198.144C82.2922 198.144 76.9143 197.987 73.4333 197.789C76.9162 199.122 80.5815 199.918 84.3037 200.149C94.1443 200.956 95.144 200.752 101.973 202.558C108.803 204.365 118.029 201.956 122.449 199.547C126.87 197.138 131.88 196.337 133.892 195.133Z" fill="black"/>
<path opacity="0.3" d="M78.5706 151.772L78.685 151.477C78.685 151.477 74.6801 145.364 75.1258 142.75C75.5714 140.137 75.0716 132.801 75.0716 132.801C75.0716 132.801 69.6514 153.277 67.2425 157.192C64.8335 161.106 57.9078 172.248 57.9078 172.248C57.9078 172.248 57.8536 172.471 57.7693 172.85C58.1848 174.054 58.9015 174.807 60.0156 174.855C64.2313 175.06 76.8783 148.562 76.8783 148.562L78.5706 151.772Z" fill="black"/>
<path d="M103.576 104.996C103.576 104.996 94.1451 107.61 87.3157 108.609C80.4863 109.609 76.2767 109.615 74.8735 113.03C73.4703 116.444 62.0217 154.982 59.6128 159.601C57.2038 164.22 55.8006 174.657 60.0163 174.855C64.2319 175.054 76.8789 148.562 76.8789 148.562L80.6911 155.789C80.6911 155.789 68.8511 192.923 69.0498 194.531C69.2486 196.138 74.47 199.348 84.3045 200.149C94.139 200.95 95.1448 200.752 101.974 202.558C108.803 204.365 118.03 201.956 122.45 199.547C126.871 197.138 131.881 196.337 133.893 195.133C135.904 193.928 135.898 193.73 135.898 191.321C135.898 188.912 126.461 154.181 126.461 154.181L132.086 139.323C132.086 139.323 144.932 165.822 145.534 168.231C146.136 170.64 149.948 173.651 153.562 172.85C157.175 172.049 160.789 169.435 159.789 163.413C158.789 157.391 141.921 115.439 140.716 111.825C139.512 108.212 140.915 104.797 135.898 103.593C130.882 102.388 106.19 103.791 106.19 103.791L103.576 104.996Z" stroke="#263238" stroke-linecap="round" stroke-linejoin="round"/>
<path d="M132.086 139.324C132.086 139.324 128.672 135.108 128.268 132.301C127.865 129.495 131.683 119.251 131.683 119.251" stroke="#263238" stroke-linecap="round" stroke-linejoin="round"/>
<path d="M76.8775 148.562C76.8775 148.562 75.125 145.183 75.125 142.744C75.125 140.305 78.4373 129.14 78.4373 129.14" stroke="#263238" stroke-linecap="round" stroke-linejoin="round"/>
<path d="M110.404 114.03C113.61 110.693 116.52 107.084 119.101 103.244C112.325 103.442 106.189 103.792 106.189 103.792L103.575 104.996C103.575 104.996 100.202 105.93 96.0289 106.899C95.794 110.205 95.3002 117.547 95.1436 121.66C94.9448 127.08 94.7461 129.688 94.7461 129.688C94.7461 129.688 102.973 121.859 110.404 114.03Z" stroke="#263238" stroke-linecap="round" stroke-linejoin="round"/>
<path d="M64.833 157.595C64.833 157.595 62.4241 172.85 60.0151 174.855C57.6062 176.861 53.794 176.265 52.186 168.833C50.5781 161.401 52.186 159.601 54.7937 155.987C57.4014 152.374 63.8273 149.561 64.833 157.595Z" fill="#EC994B"/>
<path opacity="0.3" d="M64.8291 157.595C64.8291 157.595 62.4202 172.85 60.0112 174.856C57.6023 176.861 53.7901 176.265 52.1821 168.833C50.5742 161.402 52.1821 159.601 54.7898 155.987C57.3975 152.374 63.8234 149.562 64.8291 157.595Z" fill="black"/>
<path d="M64.833 157.595C64.833 157.595 62.4241 172.85 60.0151 174.855C57.6062 176.861 53.794 176.265 52.186 168.833C50.5781 161.401 52.186 159.601 54.7937 155.987C57.4014 152.374 63.8273 149.561 64.833 157.595Z" stroke="#263238" stroke-linecap="round" stroke-linejoin="round"/>
<path d="M97.1547 89.9401C97.1547 89.9401 99.5637 98.3714 99.3589 103.792C99.1542 109.212 97.757 117.444 97.1547 121.256C96.5525 125.069 99.3589 122.461 105.785 114.234C112.211 106.008 114.017 103.593 114.415 100.78C114.812 97.9679 114.818 90.3436 114.818 90.3436C113.742 91.3694 112.415 92.0946 110.97 92.4465C109.525 92.7985 108.013 92.7649 106.586 92.349C101.569 90.9458 98.3592 87.3324 97.5522 87.3324C96.7452 87.3324 97.1547 89.9401 97.1547 89.9401Z" fill="white"/>
<path opacity="0.2" d="M106.586 92.349C101.569 90.9458 98.3592 87.3324 97.5522 87.3324C96.7452 87.3324 97.1547 89.9401 97.1547 89.9401C97.1547 89.9401 97.6365 91.6384 98.1544 93.9931C100.636 97.0465 105.484 103.027 106.188 103.792C107.134 104.87 108.886 109.212 105.785 114.234C112.211 106.002 114.017 103.593 114.415 100.78C114.812 97.9679 114.818 90.3436 114.818 90.3436C113.742 91.3694 112.415 92.0946 110.97 92.4465C109.525 92.7985 108.013 92.7649 106.586 92.349Z" fill="#263238"/>
<path d="M97.1547 89.9401C97.1547 89.9401 99.5637 98.3714 99.3589 103.792C99.1542 109.212 97.757 117.444 97.1547 121.256C96.5525 125.069 99.3589 122.461 105.785 114.234C112.211 106.008 114.017 103.593 114.415 100.78C114.812 97.9679 114.818 90.3436 114.818 90.3436C113.742 91.3694 112.415 92.0946 110.97 92.4465C109.525 92.7985 108.013 92.7649 106.586 92.349C101.569 90.9458 98.3592 87.3324 97.5522 87.3324C96.7452 87.3324 97.1547 89.9401 97.1547 89.9401Z" stroke="#263238" stroke-linecap="round" stroke-linejoin="round"/>
<path d="M94.993 74.5348C94.993 74.5348 92.7467 71.9091 91.2411 74.1614C89.7355 76.4138 94.2522 83.9177 95.5591 83.9177C96.866 83.9177 96.3059 78.6661 96.3059 77.3533C96.3059 76.0404 94.993 74.5348 94.993 74.5348Z" fill="white" stroke="#263238" stroke-linecap="round" stroke-linejoin="round"/>
<path d="M121.077 76.6005C121.077 76.6005 123.323 73.9747 124.829 76.2271C126.334 78.4795 121.817 85.9833 120.511 85.9833C119.204 85.9833 119.764 80.7258 119.764 79.4129C119.764 78.1001 121.077 76.6005 121.077 76.6005Z" fill="white"/>
<path opacity="0.2" d="M121.077 76.6005C121.077 76.6005 123.323 73.9747 124.829 76.2271C126.334 78.4795 121.818 85.9833 120.511 85.9833C119.204 85.9833 119.764 80.7258 119.764 79.4129C119.764 78.1001 121.077 76.6005 121.077 76.6005Z" fill="#263238"/>
<path d="M121.077 76.6005C121.077 76.6005 123.323 73.9747 124.829 76.2271C126.334 78.4795 121.817 85.9833 120.511 85.9833C119.204 85.9833 119.764 80.7258 119.764 79.4129C119.764 78.1001 121.077 76.6005 121.077 76.6005Z" stroke="#263238" stroke-linecap="round" stroke-linejoin="round"/>
<path d="M114.957 56.1426C114.722 56.7147 114.559 57.4012 114.126 57.6542C113.451 58.0396 112.199 57.347 111.5 57.6903C110.801 58.0336 110.591 59.4489 109.868 59.75C109.145 60.0511 108.001 59.1899 107.26 59.4368C106.52 59.6837 106.128 61.0568 105.369 61.2435C104.61 61.4302 103.593 60.4365 102.828 60.5871C102.063 60.7376 101.491 62.0505 100.714 62.1469C99.9371 62.2432 99.0578 61.1231 98.2749 61.1713C97.6004 61.2134 96.95 62.1589 96.2755 62.3757C95.3902 64.7847 94.8602 67.9886 94.806 72.2524C94.806 72.2524 94.6193 84.6284 95.9322 88.0069C97.2451 91.3855 104.189 97.5765 106.622 97.9499C109.055 98.3232 110.187 97.5765 111.313 96.4503C112.44 95.3241 119.745 89.3198 120.503 86.8807C121.262 84.4417 124.069 68.6872 123.129 63.4357C122.557 60.2318 119.076 57.5879 114.957 56.1426Z" fill="white"/>
<path opacity="0.2" d="M117.642 57.3169C118.515 58.8646 119.28 61.3097 118.949 64.9834C118.262 72.5113 118.774 78.5036 117.575 83.6527C116.377 88.8018 112.282 94.4267 109.987 95.6974C107.693 96.9682 104.91 96.655 101.827 94.9447L101.652 94.8543C103.61 96.5346 105.549 97.8294 106.621 97.992C109.06 98.3654 110.186 97.6186 111.312 96.4924C112.438 95.3662 119.744 89.3619 120.502 86.9229C121.261 84.4838 124.068 68.7293 123.128 63.4778C122.688 60.9785 120.508 58.8285 117.642 57.3169Z" fill="#263238"/>
<path d="M114.957 56.1426C114.722 56.7147 114.559 57.4012 114.126 57.6542C113.451 58.0396 112.199 57.347 111.5 57.6903C110.801 58.0336 110.591 59.4489 109.868 59.75C109.145 60.0511 108.001 59.1899 107.26 59.4368C106.52 59.6837 106.128 61.0568 105.369 61.2435C104.61 61.4302 103.593 60.4365 102.828 60.5871C102.063 60.7376 101.491 62.0505 100.714 62.1469C99.9371 62.2432 99.0578 61.1231 98.2749 61.1713C97.6004 61.2134 96.95 62.1589 96.2755 62.3757C95.3902 64.7847 94.8602 67.9886 94.806 72.2524C94.806 72.2524 94.6193 84.6284 95.9322 88.0069C97.2451 91.3855 104.189 97.5765 106.622 97.9499C109.055 98.3232 110.187 97.5765 111.313 96.4503C112.44 95.3241 119.745 89.3198 120.503 86.8807C121.262 84.4417 124.069 68.6872 123.129 63.4357C122.557 60.2318 119.076 57.5879 114.957 56.1426Z" stroke="#263238" stroke-linecap="round" stroke-linejoin="round"/>
<path d="M108.5 83.1649C108.5 83.1649 111.312 83.5443 111.511 80.9186" stroke="#263238" stroke-linecap="round" stroke-linejoin="round"/>
<path d="M113.192 86.5434C113.192 86.5434 109.814 87.1035 103.996 85.4172C103.996 85.4172 104.749 89.922 107.748 90.6687C110.747 91.4155 113.192 86.5434 113.192 86.5434Z" stroke="#263238" stroke-linecap="round" stroke-linejoin="round"/>
<path d="M105.742 75.6008C105.706 76.6848 105.261 77.5581 104.743 77.54C104.225 77.5219 103.833 76.6246 103.869 75.5406C103.906 74.4565 104.351 73.5833 104.869 73.6013C105.387 73.6194 105.785 74.5107 105.742 75.6008Z" fill="#263238"/>
<path d="M103.375 73.8845C103.831 73.6728 104.334 73.5842 104.835 73.6275C105.336 73.6709 105.817 73.8446 106.23 74.1314" stroke="#263238" stroke-linecap="round" stroke-linejoin="round"/>
<path d="M115.651 76.9077C115.536 77.9857 115.048 78.8228 114.512 78.7686C113.976 78.7144 113.675 77.793 113.79 76.709C113.904 75.625 114.392 74.7939 114.928 74.8481C115.464 74.9023 115.765 75.8237 115.651 76.9077Z" fill="#263238"/>
<path d="M113.426 75.0288C113.895 74.8495 114.403 74.7969 114.899 74.8762C115.394 74.9555 115.861 75.1639 116.25 75.4804" stroke="#263238" stroke-linecap="round" stroke-linejoin="round"/>
<path d="M101.16 70.1687C102.121 69.5825 103.212 69.2418 104.335 69.1766C105.459 69.1115 106.582 69.324 107.604 69.7953" stroke="#263238" stroke-width="2" stroke-linecap="round" stroke-linejoin="round"/>
<path d="M112.934 70.9094C112.934 70.9094 115.903 68.9281 118.878 72.5234" stroke="#263238" stroke-width="2" stroke-linecap="round" stroke-linejoin="round"/>
<path d="M130.073 175.663C130.073 175.663 127.062 169.435 126.863 163.817C126.664 158.198 129.073 155.186 131.681 157.993C134.289 160.799 132.283 172.85 130.073 175.663Z" fill="#EC994B"/>
<path opacity="0.3" d="M130.073 175.663C130.073 175.663 127.062 169.435 126.863 163.817C126.664 158.198 129.073 155.186 131.681 157.993C134.289 160.799 132.283 172.85 130.073 175.663Z" fill="black"/>
<path d="M130.073 175.663C130.073 175.663 127.062 169.435 126.863 163.817C126.664 158.198 129.073 155.186 131.681 157.993C134.289 160.799 132.283 172.85 130.073 175.663Z" stroke="#263238" stroke-linecap="round" stroke-linejoin="round"/>
<path d="M153.163 156.186C153.163 156.186 139.709 156.186 132.283 153.38C124.858 150.573 118.233 146.55 114.819 143.34C111.404 140.131 110.199 139.324 106.189 138.926C102.178 138.529 99.1604 136.312 99.1604 137.722C99.1604 139.131 100.365 140.131 101.569 140.733C102.774 141.335 107.188 143.34 107.188 143.34C107.188 143.34 107.592 144.346 103.376 145.147C99.167 145.963 95.061 147.242 91.1326 148.959C87.5192 150.567 86.3147 151.772 87.5192 152.175C88.7237 152.579 92.5358 151.17 93.3368 151.17C94.1378 151.17 98.5582 150.567 98.5582 150.567C98.5582 150.567 90.3256 154.181 89.1212 155.186C87.9167 156.192 84.508 157.595 85.9112 158.198C87.3144 158.8 93.1381 157.794 93.1381 157.794C93.1381 157.794 87.1157 159.601 89.5247 160.402C91.9336 161.203 96.9502 160.004 96.9502 160.004C96.9502 160.004 102.774 160.805 104.382 160.004C105.99 159.203 115.421 155.186 115.421 155.186C115.421 155.186 129.875 167.629 142.323 170.64C154.771 173.651 154.566 170.64 154.566 170.64" fill="white"/>
<path opacity="0.2" d="M139.112 169.676C141.521 168.61 143.424 167.731 143.424 167.731L144.026 155.686C140.063 155.301 135.595 154.608 132.295 153.362C124.857 150.567 118.232 146.55 114.818 143.34C112.409 141.088 111.114 140.022 109.169 139.45C110.198 140.305 111.204 141.407 111.204 142.461C111.204 144.569 107.591 146.677 104.881 147.881L94.0405 152.699C94.0405 152.699 102.773 149.086 102.171 151.194C101.568 153.301 95.5461 156.011 89.5237 157.517C88.6107 157.744 87.7151 158.036 86.8438 158.39C88.9757 158.535 93.1371 157.818 93.1371 157.818C93.1371 157.818 87.1148 159.625 89.5237 160.426C91.9326 161.227 96.9493 160.028 96.9493 160.028C96.9493 160.028 102.773 160.829 104.381 160.028C105.989 159.227 115.42 155.21 115.42 155.21C115.42 155.21 127.519 165.623 139.112 169.676Z" fill="#263238"/>
<path d="M153.163 156.186C153.163 156.186 139.709 156.186 132.283 153.38C124.858 150.573 118.233 146.55 114.819 143.34C111.404 140.131 110.199 139.324 106.189 138.926C102.178 138.529 99.1604 136.312 99.1604 137.722C99.1604 139.131 100.365 140.131 101.569 140.733C102.774 141.335 107.188 143.34 107.188 143.34C107.188 143.34 107.592 144.346 103.376 145.147C99.167 145.963 95.061 147.242 91.1326 148.959C87.5192 150.567 86.3147 151.772 87.5192 152.175C88.7237 152.579 92.5358 151.17 93.3368 151.17C94.1378 151.17 98.5582 150.567 98.5582 150.567C98.5582 150.567 90.3256 154.181 89.1212 155.186C87.9167 156.192 84.508 157.595 85.9112 158.198C87.3144 158.8 93.1381 157.794 93.1381 157.794C93.1381 157.794 87.1157 159.601 89.5247 160.402C91.9336 161.203 96.9502 160.004 96.9502 160.004C96.9502 160.004 102.774 160.805 104.382 160.004C105.99 159.203 115.421 155.186 115.421 155.186C115.421 155.186 129.875 167.629 142.323 170.64C154.771 173.651 154.566 170.64 154.566 170.64" stroke="#263238" stroke-linecap="round" stroke-linejoin="round"/>
<path d="M93.1367 157.794L100.231 155.295" stroke="#263238" stroke-linecap="round" stroke-linejoin="round"/>
<path d="M96.9492 160.004L101.629 158.782" stroke="#263238" stroke-linecap="round" stroke-linejoin="round"/>
<path d="M159.789 167.43C158.982 172.446 156.777 175.861 147.539 175.662C138.301 175.464 130.074 175.662 130.074 175.662C130.844 172.765 131.381 169.81 131.682 166.828C132.284 161.407 132.284 153.38 132.284 153.38C132.284 153.38 144.931 156.186 155.169 155.186" fill="#EC994B"/>
<path opacity="0.3" d="M159.789 167.43C158.982 172.447 156.778 175.861 147.539 175.663C138.301 175.464 130.074 175.663 130.074 175.663C130.844 172.765 131.381 169.811 131.682 166.828C132.285 161.408 132.285 153.38 132.285 153.38C132.285 153.38 144.932 156.186 155.17 155.186" fill="black"/>
<path d="M159.789 167.43C158.982 172.446 156.777 175.861 147.539 175.662C138.301 175.464 130.074 175.662 130.074 175.662C130.844 172.765 131.381 169.81 131.682 166.828C132.284 161.407 132.284 153.38 132.284 153.38C132.284 153.38 144.931 156.186 155.169 155.186" stroke="#263238" stroke-linecap="round" stroke-linejoin="round"/>
<path d="M66.0369 128.887C66.0369 128.887 64.9528 132.235 58.4065 144.545C52.89 154.927 51.1797 159.402 51.1797 163.214C51.1797 167.026 54.5944 171.447 59.611 168.231C64.6276 165.015 66.2356 161.167 67.0547 155.548C67.8737 149.929 72.1917 131.422 72.1917 131.422C72.1917 131.422 70.8548 126.881 66.0369 128.887Z" fill="white"/>
<path opacity="0.2" d="M67.056 155.548C67.857 149.929 72.1931 131.422 72.1931 131.422C72.1931 131.422 71.2175 128.128 67.9775 128.411L66.773 133.169C66.773 133.169 62.4248 156.288 58.2092 162.311C57.5129 163.393 56.6011 164.32 55.5308 165.033C54.4604 165.747 53.2544 166.233 51.9881 166.46C53.2829 168.935 56.0411 170.519 59.6124 168.231C64.635 165.021 66.2551 161.167 67.056 155.548Z" fill="#263238"/>
<path d="M66.0369 128.887C66.0369 128.887 64.9528 132.235 58.4065 144.545C52.89 154.927 51.1797 159.402 51.1797 163.214C51.1797 167.026 54.5944 171.447 59.611 168.231C64.6276 165.015 66.2356 161.167 67.0547 155.548C67.8737 149.929 72.1917 131.422 72.1917 131.422C72.1917 131.422 70.8548 126.881 66.0369 128.887Z" stroke="#263238" stroke-linecap="round" stroke-linejoin="round"/>
<path d="M68.0424 122.063C68.0424 122.063 61.2191 122.063 60.4181 123.063C59.6171 124.063 59.6111 126.676 62.02 126.676C64.429 126.676 68.2472 126.478 69.4516 125.677C70.6561 124.876 70.0599 121.696 68.0424 122.063Z" fill="white" stroke="#263238" stroke-linecap="round" stroke-linejoin="round"/>
<path d="M65.187 132.976C65.1094 133.558 65.1791 134.15 65.3895 134.698C65.5999 135.246 65.9444 135.733 66.3915 136.114C67.9573 137.511 70.9264 136.638 70.4024 135.77C69.8785 134.903 66.7408 133.151 66.7408 133.151L65.187 132.976Z" fill="white" stroke="#263238" stroke-linecap="round" stroke-linejoin="round"/>
<path d="M64.8307 129.892C64.8307 129.892 63.6262 131.898 64.4272 132.904C65.2282 133.909 67.4384 134.108 70.0521 133.506C72.6658 132.904 73.4608 130.091 71.2566 129.892C69.116 129.783 66.9713 129.783 64.8307 129.892Z" fill="white" stroke="#263238" stroke-linecap="round" stroke-linejoin="round"/>
<path d="M63.8267 126.677C63.8267 126.677 62.2247 127.682 62.827 129.29C63.4292 130.898 66.0369 130.892 69.2468 130.29C72.4568 129.688 72.4628 126.279 71.2583 126.074C70.0538 125.87 63.8267 126.677 63.8267 126.677Z" fill="white" stroke="#263238" stroke-linecap="round" stroke-linejoin="round"/>
<path d="M75.5706 140.13C73.3084 140.129 71.1394 139.229 69.5403 137.629C67.9412 136.029 67.043 133.859 67.043 131.597V118.45H84.1043V131.597C84.1043 132.717 83.8836 133.827 83.4548 134.862C83.0259 135.898 82.3973 136.839 81.6049 137.631C80.8125 138.423 79.8717 139.052 78.8363 139.481C77.801 139.91 76.6913 140.13 75.5706 140.13Z" fill="white"/>
<path opacity="0.3" d="M77.943 118.492V132.946C77.943 132.946 77.2806 136.282 72.83 137.161C71.6896 137.381 70.5276 137.468 69.3672 137.42C70.1612 138.271 71.1216 138.948 72.1888 139.411C73.2559 139.875 74.4069 140.113 75.5702 140.112C77.8304 140.112 79.9982 139.216 81.5981 137.619C83.1979 136.023 84.0991 133.857 84.1039 131.597V118.45H77.9852L77.943 118.492Z" fill="black"/>
<path d="M75.5706 140.13C73.3084 140.129 71.1394 139.229 69.5403 137.629C67.9412 136.029 67.043 133.859 67.043 131.597V118.45H84.1043V131.597C84.1043 132.717 83.8836 133.827 83.4548 134.862C83.0259 135.898 82.3973 136.839 81.6049 137.631C80.8125 138.423 79.8717 139.052 78.8363 139.481C77.801 139.91 76.6913 140.13 75.5706 140.13V140.13Z" stroke="#263238" stroke-linecap="round" stroke-linejoin="round"/>
<path d="M64.7305 98.9496C65.5162 98.4225 66.4653 98.1959 67.4044 98.3112" stroke="#263238" stroke-linecap="round" stroke-linejoin="round"/>
<path d="M71.9094 117.444C71.9094 117.444 73.0054 114.764 70.4459 111.717C68.4284 109.308 64.803 108.959 62.8457 106.532C61.5509 104.93 61.84 102.563 62.9722 100.774" stroke="#263238" stroke-linecap="round" stroke-linejoin="round"/>
<path d="M72.6602 107.562C72.6602 107.562 77.0444 108.658 78.3814 112.307C79.7184 115.957 78.7488 117.3 78.7488 117.3" stroke="#263238" stroke-linecap="round" stroke-linejoin="round"/>
<path d="M3 205.383H255" stroke="#263238" stroke-linecap="round" stroke-linejoin="round"/>
<path d="M231.908 94.0233H173.124C170.879 94.0233 169.059 95.8433 169.059 98.0884V210.55C169.059 212.795 170.879 214.615 173.124 214.615H231.908C234.153 214.615 235.973 212.795 235.973 210.55V98.0884C235.973 95.8433 234.153 94.0233 231.908 94.0233Z" fill="#263238" stroke="#263238" stroke-linecap="round" stroke-linejoin="round"/>
<path d="M228.806 94.0233H170.022C167.777 94.0233 165.957 95.8433 165.957 98.0884V210.55C165.957 212.795 167.777 214.615 170.022 214.615H228.806C231.052 214.615 232.872 212.795 232.872 210.55V98.0884C232.872 95.8433 231.052 94.0233 228.806 94.0233Z" fill="white" stroke="#263238" stroke-linecap="round" stroke-linejoin="round"/>
<path d="M204.036 101.226H195.707C195.48 101.226 195.262 101.136 195.102 100.976C194.942 100.815 194.852 100.598 194.852 100.371C194.853 100.145 194.944 99.928 195.104 99.768C195.264 99.6079 195.48 99.5173 195.707 99.5157H204.036C204.262 99.5157 204.48 99.6058 204.64 99.7662C204.801 99.9266 204.891 100.144 204.891 100.371C204.892 100.483 204.87 100.595 204.827 100.699C204.785 100.803 204.722 100.898 204.642 100.977C204.563 101.057 204.468 101.12 204.364 101.163C204.26 101.205 204.148 101.227 204.036 101.226Z" fill="#263238"/>
<path d="M228.637 203.835H170.184V101.328H184.035L185.589 102.617C186.135 103.068 186.82 103.315 187.528 103.316H211.979C212.715 103.318 213.426 103.05 213.978 102.563L215.387 101.359H228.637V203.835Z" fill="#263238"/>
<path d="M213.062 153.622C220.529 146.155 220.529 134.048 213.062 126.581C205.595 119.113 193.488 119.113 186.021 126.581C178.553 134.048 178.553 146.155 186.021 153.622C193.488 161.089 205.595 161.089 213.062 153.622Z" stroke="#EC994B" stroke-miterlimit="10"/>
<path d="M199.538 155.861C208.242 155.861 215.298 148.805 215.298 140.1C215.298 131.396 208.242 124.34 199.538 124.34C190.833 124.34 183.777 131.396 183.777 140.1C183.777 148.805 190.833 155.861 199.538 155.861Z" fill="#EC994B"/>
<path d="M224.324 177.806C223.167 177.508 221.989 177.295 220.801 177.168C219.103 177.042 217.748 177.686 217.073 177.686C216.399 177.686 215.604 176.006 213.002 174.97C210.4 173.934 208.371 177.301 206.112 177.301C205.041 177.301 204.348 176.536 203.649 175.711C203.335 175.227 202.94 174.802 202.481 174.452C202.019 174.019 201.43 173.747 200.801 173.675C200.632 173.663 200.463 173.663 200.295 173.675C200.126 173.663 199.957 173.663 199.789 173.675C199.16 173.747 198.571 174.019 198.109 174.452C197.65 174.802 197.255 175.227 196.94 175.711C196.242 176.536 195.555 177.301 194.477 177.301C192.219 177.301 190.183 173.934 187.588 174.97C184.992 176.006 184.197 177.686 183.517 177.686C182.836 177.686 181.487 177.042 179.789 177.168C178.6 177.296 177.423 177.509 176.266 177.806C177.422 178.107 178.6 178.32 179.789 178.445C181.487 178.577 182.842 177.927 183.517 177.927C184.191 177.927 184.986 179.613 187.588 180.649C190.189 181.685 192.219 178.318 194.477 178.318C195.555 178.318 196.242 179.077 196.94 179.908C197.257 180.388 197.652 180.812 198.109 181.161C198.573 181.592 199.161 181.866 199.789 181.944C199.957 181.956 200.126 181.956 200.295 181.944C200.463 181.956 200.632 181.956 200.801 181.944C201.429 181.866 202.017 181.592 202.481 181.161C202.938 180.812 203.333 180.388 203.649 179.908C204.348 179.077 205.041 178.318 206.112 178.318C208.371 178.318 210.406 181.685 213.002 180.649C215.598 179.613 216.393 177.927 217.073 177.927C217.754 177.927 219.103 178.577 220.801 178.445C221.99 178.321 223.167 178.107 224.324 177.806Z" fill="#EC994B"/>
<path opacity="0.7" d="M221.689 177.8C220.992 177.605 220.282 177.464 219.563 177.379C218.545 177.295 217.756 177.722 217.317 177.722C216.877 177.722 216.431 176.608 214.866 175.915C213.3 175.223 212.077 177.463 210.716 177.463C210.066 177.463 209.65 176.957 209.229 176.409C209.041 176.094 208.803 175.811 208.524 175.572C208.255 175.291 207.898 175.11 207.512 175.06C207.41 175.051 207.307 175.051 207.205 175.06C206.962 175.048 206.718 175.089 206.492 175.179C206.265 175.27 206.061 175.408 205.892 175.584C205.613 175.823 205.375 176.106 205.188 176.421C204.766 176.969 204.351 177.475 203.7 177.475C203.111 177.392 202.56 177.136 202.116 176.74C201.731 176.407 201.299 176.133 200.834 175.927C200.631 175.838 200.411 175.794 200.189 175.801C199.97 175.794 199.751 175.838 199.551 175.927C199.085 176.133 198.653 176.407 198.268 176.74C197.823 177.137 197.269 177.393 196.678 177.475C196.034 177.475 195.618 176.969 195.197 176.421C195.009 176.106 194.771 175.823 194.492 175.584C194.222 175.304 193.866 175.124 193.48 175.072C193.378 175.063 193.275 175.063 193.173 175.072C193.071 175.064 192.968 175.064 192.866 175.072C192.481 175.124 192.124 175.304 191.854 175.584C191.577 175.823 191.341 176.106 191.156 176.421C190.734 176.969 190.318 177.475 189.668 177.475C188.307 177.475 187.084 175.241 185.519 175.927C183.953 176.614 183.471 177.734 183.068 177.734C182.664 177.734 181.863 177.307 180.821 177.391C180.103 177.476 179.392 177.617 178.695 177.812C179.391 178.011 180.102 178.152 180.821 178.234C181.839 178.324 182.658 177.891 183.068 177.891C183.477 177.891 183.953 179.011 185.519 179.697C187.084 180.384 188.307 178.15 189.668 178.15C190.318 178.15 190.734 178.656 191.156 179.204C191.34 179.518 191.576 179.799 191.854 180.035C192.125 180.314 192.481 180.496 192.866 180.553C192.968 180.558 193.071 180.558 193.173 180.553C193.275 180.559 193.378 180.559 193.48 180.553C193.865 180.496 194.221 180.314 194.492 180.035C194.772 179.8 195.011 179.519 195.197 179.204C195.618 178.656 196.034 178.15 196.678 178.15C197.27 178.227 197.825 178.484 198.268 178.884C198.653 179.218 199.085 179.492 199.551 179.697C199.752 179.786 199.97 179.827 200.189 179.818C200.41 179.827 200.631 179.786 200.834 179.697C201.301 179.492 201.733 179.216 202.116 178.878C202.559 178.482 203.111 178.229 203.7 178.15C204.351 178.15 204.766 178.656 205.188 179.204C205.374 179.519 205.612 179.8 205.892 180.035C206.162 180.315 206.519 180.498 206.904 180.553C207.004 180.559 207.105 180.559 207.205 180.553C207.307 180.559 207.41 180.559 207.512 180.553C207.898 180.498 208.254 180.315 208.524 180.035C208.804 179.8 209.043 179.519 209.229 179.204C209.65 178.656 210.066 178.15 210.716 178.15C212.077 178.15 213.3 180.384 214.866 179.697C216.431 179.011 216.907 177.891 217.317 177.891C217.726 177.891 218.521 178.324 219.563 178.234C220.282 178.152 220.993 178.011 221.689 177.812V177.8Z" fill="white"/>
<path d="M199.41 144.172C198.992 144.172 198.579 144.091 198.192 143.931C197.806 143.772 197.455 143.537 197.16 143.242C196.865 142.947 196.63 142.596 196.471 142.21C196.311 141.823 196.23 141.41 196.23 140.992V130.922C196.23 130.505 196.313 130.092 196.473 129.706C196.633 129.321 196.867 128.971 197.162 128.676C197.458 128.381 197.808 128.148 198.194 127.988C198.58 127.829 198.993 127.748 199.41 127.749C200.252 127.749 201.059 128.083 201.654 128.678C202.25 129.273 202.584 130.081 202.584 130.922V140.992C202.585 141.409 202.503 141.822 202.344 142.208C202.185 142.594 201.951 142.944 201.657 143.24C201.362 143.535 201.012 143.77 200.626 143.929C200.241 144.089 199.828 144.172 199.41 144.172Z" fill="#263238"/>
<path d="M199.437 146.454C197.948 146.452 196.521 145.861 195.468 144.809C194.414 143.756 193.821 142.33 193.818 140.841V136.114C193.794 136.024 193.79 135.93 193.808 135.84C193.826 135.749 193.864 135.663 193.921 135.59C193.977 135.516 194.049 135.457 194.132 135.416C194.215 135.375 194.307 135.353 194.399 135.353C194.492 135.353 194.583 135.375 194.666 135.416C194.749 135.457 194.821 135.516 194.878 135.59C194.934 135.663 194.972 135.749 194.99 135.84C195.008 135.93 195.005 136.024 194.98 136.114V140.841C194.98 142.023 195.45 143.157 196.286 143.992C197.121 144.828 198.255 145.298 199.437 145.298C200.619 145.298 201.752 144.828 202.588 143.992C203.424 143.157 203.893 142.023 203.893 140.841V136.114C203.867 136.024 203.862 135.929 203.879 135.837C203.896 135.745 203.934 135.658 203.99 135.584C204.046 135.509 204.119 135.448 204.202 135.406C204.286 135.364 204.378 135.343 204.472 135.343C204.565 135.343 204.657 135.364 204.741 135.406C204.824 135.448 204.897 135.509 204.953 135.584C205.009 135.658 205.047 135.745 205.064 135.837C205.081 135.929 205.076 136.024 205.05 136.114V140.841C205.048 142.329 204.456 143.756 203.404 144.808C202.352 145.86 200.925 146.452 199.437 146.454Z" fill="#263238"/>
<path d="M199.436 152.5C199.276 152.5 199.123 152.437 199.01 152.324C198.897 152.211 198.834 152.058 198.834 151.898V145.876C198.809 145.787 198.806 145.693 198.824 145.602C198.842 145.511 198.88 145.426 198.936 145.352C198.993 145.279 199.065 145.219 199.148 145.178C199.231 145.137 199.322 145.116 199.415 145.116C199.507 145.116 199.599 145.137 199.682 145.178C199.765 145.219 199.837 145.279 199.893 145.352C199.949 145.426 199.988 145.511 200.006 145.602C200.024 145.693 200.02 145.787 199.996 145.876V151.898C199.996 152.051 199.939 152.198 199.835 152.31C199.731 152.422 199.588 152.49 199.436 152.5Z" fill="#263238"/>
<path d="M203.306 152.808H195.561C195.472 152.832 195.378 152.835 195.287 152.817C195.196 152.8 195.111 152.761 195.037 152.705C194.964 152.649 194.904 152.576 194.863 152.493C194.822 152.41 194.801 152.319 194.801 152.226C194.801 152.134 194.822 152.043 194.863 151.96C194.904 151.877 194.964 151.804 195.037 151.748C195.111 151.692 195.196 151.653 195.287 151.635C195.378 151.618 195.472 151.621 195.561 151.645H203.306C203.395 151.621 203.489 151.618 203.58 151.635C203.67 151.653 203.756 151.692 203.829 151.748C203.903 151.804 203.963 151.877 204.004 151.96C204.045 152.043 204.066 152.134 204.066 152.226C204.066 152.319 204.045 152.41 204.004 152.493C203.963 152.576 203.903 152.649 203.829 152.705C203.756 152.761 203.67 152.8 203.58 152.817C203.489 152.835 203.395 152.832 203.306 152.808Z" fill="#263238"/>
<path opacity="0.3" d="M228.638 159.384V101.328H215.388L213.979 102.533C213.427 103.02 212.716 103.288 211.98 103.286H187.529C186.821 103.285 186.136 103.038 185.59 102.587L184.072 101.328H170.582L228.638 159.384Z" fill="white"/>
<path d="M228.637 203.835H170.184V101.328H184.035L185.589 102.617C186.135 103.068 186.82 103.315 187.528 103.316H211.979C212.715 103.318 213.426 103.05 213.978 102.563L215.387 101.359H228.637V203.835Z" stroke="#263238" stroke-linecap="round" stroke-linejoin="round"/>
<path d="M201.279 206.997C201.279 206.733 201.201 206.476 201.054 206.257C200.908 206.038 200.7 205.867 200.456 205.767C200.213 205.666 199.945 205.64 199.686 205.692C199.428 205.744 199.191 205.871 199.005 206.058C198.819 206.245 198.693 206.482 198.642 206.741C198.591 207 198.619 207.267 198.72 207.51C198.822 207.754 198.993 207.961 199.213 208.107C199.433 208.252 199.691 208.329 199.954 208.328C200.129 208.328 200.301 208.293 200.463 208.226C200.624 208.159 200.77 208.061 200.893 207.938C201.016 207.814 201.114 207.667 201.18 207.506C201.246 207.344 201.28 207.171 201.279 206.997Z" fill="#263238"/>
</svg>
